<svg width="72" height="72" viewBox="0 0 72 72" fill="none" xmlns="http://www.w3.org/2000/svg">
<rect x="0.5" y="0.5" width="71" height="71" rx="9.5" fill="#5E72E4" stroke="#5E72E4"/>
<path d="M34.95 37.36C33.974 37.36 33.094 37.16 32.31 36.76C31.542 36.36 30.878 35.784 30.318 35.032C29.774 34.28 29.358 33.376 29.07 32.32C28.782 31.264 28.638 30.072 28.638 28.744C28.638 27.416 28.782 26.216 29.07 25.144C29.374 24.072 29.798 23.16 30.342 22.408C30.902 21.656 31.574 21.08 32.358 20.68C33.158 20.28 34.054 20.08 35.046 20.08C36.022 20.08 36.894 20.28 37.662 20.68C38.446 21.08 39.11 21.656 39.654 22.408C40.214 23.16 40.638 24.064 40.926 25.12C41.214 26.176 41.358 27.368 41.358 28.696C41.358 30.024 41.206 31.224 40.902 32.296C40.614 33.368 40.19 34.28 39.63 35.032C39.086 35.784 38.414 36.36 37.614 36.76C36.83 37.16 35.942 37.36 34.95 37.36ZM34.998 34.216C35.926 34.216 36.638 33.744 37.134 32.8C37.646 31.84 37.902 30.48 37.902 28.72C37.902 26.96 37.646 25.608 37.134 24.664C36.638 23.704 35.926 23.224 34.998 23.224C34.07 23.224 33.35 23.704 32.838 24.664C32.342 25.608 32.094 26.96 32.094 28.72C32.094 30.48 32.342 31.84 32.838 32.8C33.35 33.744 34.07 34.216 34.998 34.216Z" fill="#FEFEFF"/>
<path d="M6.936 55V46.48H9.252C9.9 46.48 10.46 46.584 10.932 46.792C11.412 47 11.78 47.296 12.036 47.68C12.292 48.064 12.42 48.516 12.42 49.036C12.42 49.572 12.272 50.044 11.976 50.452C11.688 50.86 11.284 51.168 10.764 51.376L12.828 55H11.652L9.804 51.64C9.7 51.648 9.584 51.656 9.456 51.664C9.336 51.672 9.212 51.676 9.084 51.676C8.924 51.676 8.744 51.668 8.544 51.652C8.352 51.636 8.152 51.612 7.944 51.58V55H6.936ZM7.944 47.38V50.68C8.128 50.712 8.324 50.736 8.532 50.752C8.748 50.768 8.944 50.776 9.12 50.776C9.848 50.776 10.408 50.628 10.8 50.332C11.192 50.036 11.388 49.62 11.388 49.084C11.388 48.548 11.2 48.132 10.824 47.836C10.448 47.532 9.924 47.38 9.252 47.38H7.944ZM16.7144 55.18C16.2584 55.18 15.8384 55.1 15.4544 54.94C15.0784 54.78 14.7504 54.556 14.4704 54.268C14.1904 53.972 13.9744 53.628 13.8224 53.236C13.6704 52.836 13.5944 52.396 13.5944 51.916C13.5944 51.444 13.6664 51.012 13.8104 50.62C13.9624 50.22 14.1704 49.872 14.4344 49.576C14.7064 49.28 15.0224 49.052 15.3824 48.892C15.7424 48.724 16.1344 48.64 16.5584 48.64C16.9664 48.64 17.3424 48.716 17.6864 48.868C18.0384 49.02 18.3424 49.232 18.5984 49.504C18.8544 49.776 19.0504 50.1 19.1864 50.476C19.3304 50.852 19.4024 51.26 19.4024 51.7V52.096H14.5904C14.6224 52.544 14.7264 52.936 14.9024 53.272C15.0864 53.608 15.3304 53.868 15.6344 54.052C15.9384 54.236 16.2904 54.328 16.6904 54.328C17.0824 54.328 17.4224 54.248 17.7104 54.088C18.0064 53.92 18.2584 53.676 18.4664 53.356L19.2824 53.728C19.1224 54.032 18.9144 54.292 18.6584 54.508C18.4024 54.724 18.1064 54.888 17.7704 55C17.4424 55.12 17.0904 55.18 16.7144 55.18ZM16.5584 49.456C16.2304 49.456 15.9304 49.536 15.6584 49.696C15.3944 49.856 15.1704 50.08 14.9864 50.368C14.8104 50.648 14.6944 50.976 14.6384 51.352H18.3944C18.3624 50.976 18.2624 50.648 18.0944 50.368C17.9264 50.08 17.7104 49.856 17.4464 49.696C17.1824 49.536 16.8864 49.456 16.5584 49.456ZM22.753 55.18C22.393 55.18 22.053 55.12 21.733 55C21.421 54.88 21.149 54.708 20.917 54.484C20.685 54.26 20.509 53.996 20.389 53.692L21.253 53.38C21.413 53.684 21.621 53.92 21.877 54.088C22.133 54.256 22.425 54.34 22.753 54.34C23.017 54.34 23.249 54.296 23.449 54.208C23.649 54.12 23.805 54 23.917 53.848C24.029 53.688 24.085 53.512 24.085 53.32C24.085 52.8 23.709 52.464 22.957 52.312L22.489 52.216C21.833 52.088 21.349 51.88 21.037 51.592C20.725 51.296 20.569 50.924 20.569 50.476C20.569 50.116 20.661 49.796 20.845 49.516C21.029 49.236 21.285 49.02 21.613 48.868C21.949 48.708 22.329 48.628 22.753 48.628C23.105 48.628 23.429 48.688 23.725 48.808C24.021 48.92 24.273 49.088 24.481 49.312C24.697 49.536 24.861 49.8 24.973 50.104L24.109 50.392C23.981 50.096 23.797 49.868 23.557 49.708C23.325 49.54 23.053 49.456 22.741 49.456C22.501 49.456 22.289 49.496 22.105 49.576C21.929 49.656 21.789 49.764 21.685 49.9C21.581 50.036 21.529 50.196 21.529 50.38C21.529 50.636 21.625 50.84 21.817 50.992C22.017 51.144 22.337 51.264 22.777 51.352L23.245 51.448C23.837 51.568 24.289 51.78 24.601 52.084C24.913 52.38 25.069 52.76 25.069 53.224C25.069 53.512 25.009 53.776 24.889 54.016C24.777 54.248 24.617 54.452 24.409 54.628C24.209 54.804 23.965 54.94 23.677 55.036C23.397 55.132 23.089 55.18 22.753 55.18ZM26.34 57.448V48.808H27.204L27.252 49.984C27.476 49.56 27.784 49.228 28.176 48.988C28.576 48.748 29.028 48.628 29.532 48.628C29.94 48.628 30.32 48.712 30.672 48.88C31.024 49.04 31.332 49.268 31.596 49.564C31.86 49.86 32.064 50.208 32.208 50.608C32.36 51 32.436 51.428 32.436 51.892C32.436 52.356 32.36 52.788 32.208 53.188C32.064 53.588 31.856 53.936 31.584 54.232C31.32 54.528 31.008 54.76 30.648 54.928C30.288 55.096 29.9 55.18 29.484 55.18C29.012 55.18 28.584 55.072 28.2 54.856C27.824 54.64 27.524 54.336 27.3 53.944V57.448H26.34ZM29.364 54.304C29.668 54.304 29.944 54.244 30.192 54.124C30.448 54.004 30.668 53.84 30.852 53.632C31.044 53.416 31.192 53.164 31.296 52.876C31.4 52.58 31.452 52.256 31.452 51.904C31.452 51.552 31.4 51.232 31.296 50.944C31.192 50.648 31.044 50.396 30.852 50.188C30.668 49.972 30.448 49.804 30.192 49.684C29.944 49.564 29.668 49.504 29.364 49.504C29.06 49.504 28.78 49.564 28.524 49.684C28.276 49.804 28.056 49.972 27.864 50.188C27.68 50.396 27.536 50.648 27.432 50.944C27.328 51.232 27.276 51.552 27.276 51.904C27.276 52.256 27.328 52.58 27.432 52.876C27.536 53.164 27.68 53.416 27.864 53.632C28.056 53.84 28.276 54.004 28.524 54.124C28.78 54.244 29.06 54.304 29.364 54.304ZM36.6114 55.18C36.1714 55.18 35.7634 55.1 35.3874 54.94C35.0194 54.772 34.6954 54.544 34.4154 54.256C34.1434 53.96 33.9314 53.612 33.7794 53.212C33.6274 52.812 33.5514 52.376 33.5514 51.904C33.5514 51.432 33.6274 50.996 33.7794 50.596C33.9394 50.196 34.1554 49.852 34.4274 49.564C34.7074 49.268 35.0354 49.04 35.4114 48.88C35.7874 48.712 36.1954 48.628 36.6354 48.628C37.0754 48.628 37.4794 48.712 37.8474 48.88C38.2234 49.04 38.5474 49.268 38.8194 49.564C39.0994 49.852 39.3154 50.196 39.4674 50.596C39.6194 50.996 39.6954 51.432 39.6954 51.904C39.6954 52.376 39.6154 52.812 39.4554 53.212C39.3034 53.612 39.0874 53.96 38.8074 54.256C38.5354 54.544 38.2114 54.772 37.8354 54.94C37.4594 55.1 37.0514 55.18 36.6114 55.18ZM36.6234 54.304C36.9274 54.304 37.2034 54.244 37.4514 54.124C37.7074 54.004 37.9274 53.84 38.1114 53.632C38.3034 53.416 38.4514 53.164 38.5554 52.876C38.6594 52.58 38.7114 52.256 38.7114 51.904C38.7114 51.552 38.6594 51.232 38.5554 50.944C38.4514 50.648 38.3034 50.396 38.1114 50.188C37.9274 49.972 37.7074 49.804 37.4514 49.684C37.2034 49.564 36.9274 49.504 36.6234 49.504C36.3194 49.504 36.0394 49.564 35.7834 49.684C35.5354 49.804 35.3154 49.972 35.1234 50.188C34.9394 50.396 34.7954 50.648 34.6914 50.944C34.5874 51.232 34.5354 51.552 34.5354 51.904C34.5354 52.256 34.5874 52.58 34.6914 52.876C34.7954 53.164 34.9394 53.416 35.1234 53.632C35.3154 53.84 35.5354 54.004 35.7834 54.124C36.0394 54.244 36.3194 54.304 36.6234 54.304ZM41.0588 55V48.808H41.9228L41.9708 49.792C42.1548 49.44 42.4188 49.16 42.7628 48.952C43.1148 48.736 43.5188 48.628 43.9748 48.628C44.4468 48.628 44.8588 48.74 45.2108 48.964C45.5628 49.188 45.8308 49.508 46.0148 49.924C46.2068 50.332 46.3028 50.816 46.3028 51.376V55H45.3428V51.436C45.3428 50.82 45.2068 50.344 44.9348 50.008C44.6708 49.672 44.2908 49.504 43.7948 49.504C43.4508 49.504 43.1428 49.584 42.8708 49.744C42.6068 49.896 42.3988 50.112 42.2468 50.392C42.0948 50.664 42.0188 50.976 42.0188 51.328V55H41.0588ZM49.8937 55.18C49.5337 55.18 49.1937 55.12 48.8737 55C48.5617 54.88 48.2897 54.708 48.0577 54.484C47.8257 54.26 47.6497 53.996 47.5297 53.692L48.3937 53.38C48.5537 53.684 48.7617 53.92 49.0177 54.088C49.2737 54.256 49.5657 54.34 49.8937 54.34C50.1577 54.34 50.3897 54.296 50.5897 54.208C50.7897 54.12 50.9457 54 51.0577 53.848C51.1697 53.688 51.2257 53.512 51.2257 53.32C51.2257 52.8 50.8497 52.464 50.0977 52.312L49.6297 52.216C48.9737 52.088 48.4897 51.88 48.1777 51.592C47.8657 51.296 47.7097 50.924 47.7097 50.476C47.7097 50.116 47.8017 49.796 47.9857 49.516C48.1697 49.236 48.4257 49.02 48.7537 48.868C49.0897 48.708 49.4697 48.628 49.8937 48.628C50.2457 48.628 50.5697 48.688 50.8657 48.808C51.1617 48.92 51.4137 49.088 51.6217 49.312C51.8377 49.536 52.0017 49.8 52.1137 50.104L51.2497 50.392C51.1217 50.096 50.9377 49.868 50.6977 49.708C50.4657 49.54 50.1937 49.456 49.8817 49.456C49.6417 49.456 49.4297 49.496 49.2457 49.576C49.0697 49.656 48.9297 49.764 48.8257 49.9C48.7217 50.036 48.6697 50.196 48.6697 50.38C48.6697 50.636 48.7657 50.84 48.9577 50.992C49.1577 51.144 49.4777 51.264 49.9177 51.352L50.3857 51.448C50.9777 51.568 51.4297 51.78 51.7417 52.084C52.0537 52.38 52.2097 52.76 52.2097 53.224C52.2097 53.512 52.1497 53.776 52.0297 54.016C51.9177 54.248 51.7577 54.452 51.5497 54.628C51.3497 54.804 51.1057 54.94 50.8177 55.036C50.5377 55.132 50.2297 55.18 49.8937 55.18ZM56.2886 55.18C55.8326 55.18 55.4126 55.1 55.0286 54.94C54.6526 54.78 54.3246 54.556 54.0446 54.268C53.7646 53.972 53.5486 53.628 53.3966 53.236C53.2446 52.836 53.1686 52.396 53.1686 51.916C53.1686 51.444 53.2406 51.012 53.3846 50.62C53.5366 50.22 53.7446 49.872 54.0086 49.576C54.2806 49.28 54.5966 49.052 54.9566 48.892C55.3166 48.724 55.7086 48.64 56.1326 48.64C56.5406 48.64 56.9166 48.716 57.2606 48.868C57.6126 49.02 57.9166 49.232 58.1726 49.504C58.4286 49.776 58.6246 50.1 58.7606 50.476C58.9046 50.852 58.9766 51.26 58.9766 51.7V52.096H54.1646C54.1966 52.544 54.3006 52.936 54.4766 53.272C54.6606 53.608 54.9046 53.868 55.2086 54.052C55.5126 54.236 55.8646 54.328 56.2646 54.328C56.6566 54.328 56.9966 54.248 57.2846 54.088C57.5806 53.92 57.8326 53.676 58.0406 53.356L58.8566 53.728C58.6966 54.032 58.4886 54.292 58.2326 54.508C57.9766 54.724 57.6806 54.888 57.3446 55C57.0166 55.12 56.6646 55.18 56.2886 55.18ZM56.1326 49.456C55.8046 49.456 55.5046 49.536 55.2326 49.696C54.9686 49.856 54.7446 50.08 54.5606 50.368C54.3846 50.648 54.2686 50.976 54.2126 51.352H57.9686C57.9366 50.976 57.8366 50.648 57.6686 50.368C57.5006 50.08 57.2846 49.856 57.0206 49.696C56.7566 49.536 56.4606 49.456 56.1326 49.456ZM62.3273 55.18C61.9673 55.18 61.6273 55.12 61.3073 55C60.9953 54.88 60.7233 54.708 60.4913 54.484C60.2593 54.26 60.0833 53.996 59.9633 53.692L60.8273 53.38C60.9873 53.684 61.1953 53.92 61.4513 54.088C61.7073 54.256 61.9993 54.34 62.3273 54.34C62.5913 54.34 62.8233 54.296 63.0233 54.208C63.2233 54.12 63.3793 54 63.4913 53.848C63.6033 53.688 63.6593 53.512 63.6593 53.32C63.6593 52.8 63.2833 52.464 62.5312 52.312L62.0633 52.216C61.4073 52.088 60.9233 51.88 60.6113 51.592C60.2993 51.296 60.1433 50.924 60.1433 50.476C60.1433 50.116 60.2353 49.796 60.4193 49.516C60.6033 49.236 60.8593 49.02 61.1873 48.868C61.5233 48.708 61.9033 48.628 62.3273 48.628C62.6793 48.628 63.0033 48.688 63.2993 48.808C63.5953 48.92 63.8473 49.088 64.0553 49.312C64.2713 49.536 64.4353 49.8 64.5473 50.104L63.6833 50.392C63.5553 50.096 63.3713 49.868 63.1313 49.708C62.8993 49.54 62.6273 49.456 62.3153 49.456C62.0753 49.456 61.8633 49.496 61.6793 49.576C61.5033 49.656 61.3633 49.764 61.2593 49.9C61.1553 50.036 61.1033 50.196 61.1033 50.38C61.1033 50.636 61.1993 50.84 61.3913 50.992C61.5913 51.144 61.9113 51.264 62.3513 51.352L62.8193 51.448C63.4113 51.568 63.8633 51.78 64.1753 52.084C64.4873 52.38 64.6433 52.76 64.6433 53.224C64.6433 53.512 64.5833 53.776 64.4633 54.016C64.3513 54.248 64.1913 54.452 63.9833 54.628C63.7833 54.804 63.5393 54.94 63.2513 55.036C62.9713 55.132 62.6633 55.18 62.3273 55.18Z" fill="#BFC7F4"/>
</svg>
