<svg width="20" height="20" viewBox="0 0 20 20" fill="none" xmlns="http://www.w3.org/2000/svg">
<path d="M2.33643 12.8975C2.33643 12.8975 2.45476 14.3458 2.48226 14.8025C2.51893 15.415 2.75559 16.0991 3.15059 16.5741C3.70809 17.2475 4.36476 17.485 5.24143 17.4866C6.27226 17.4883 13.7681 17.4883 14.7989 17.4866C15.6756 17.485 16.3323 17.2475 16.8898 16.5741C17.2848 16.0991 17.5214 15.415 17.5589 14.8025C17.5856 14.3458 17.7039 12.8975 17.7039 12.8975" stroke="#DC5B5E" stroke-width="1.5" stroke-linecap="round" stroke-linejoin="round"/>
<path d="M7.08008 4.44116V4.13199C7.08008 3.11533 7.90341 2.29199 8.92008 2.29199H11.0717C12.0876 2.29199 12.9117 3.11533 12.9117 4.13199L12.9126 4.44116" stroke="#DC5B5E" stroke-width="1.5" stroke-linecap="round" stroke-linejoin="round"/>
<path d="M9.99577 13.8986V12.8203" stroke="#DC5B5E" stroke-width="1.5" stroke-linecap="round" stroke-linejoin="round"/>
<path fill-rule="evenodd" clip-rule="evenodd" d="M2.2915 6.99072V9.87988C3.88984 10.934 5.80484 11.6724 7.9065 11.9649C8.15817 11.0474 8.98567 10.3749 9.9915 10.3749C10.9815 10.3749 11.8257 11.0474 12.0607 11.9732C14.1707 11.6807 16.0932 10.9424 17.6998 9.87988V6.99072C17.6998 5.57905 16.564 4.44238 15.1523 4.44238H4.84734C3.43567 4.44238 2.2915 5.57905 2.2915 6.99072Z" stroke="#DC5B5E" stroke-width="1.5" stroke-linecap="round" stroke-linejoin="round"/>
</svg>
