<svg width="24" height="24" viewBox="0 0 24 24" fill="none" xmlns="http://www.w3.org/2000/svg">
<path opacity="0.4" d="M8.20248 13.1903L4.50325 13.5175C3.67308 13.5175 3 12.8378 3 11.9996C3 11.1613 3.67308 10.4817 4.50325 10.4817L8.20248 10.8088C8.85375 10.8088 9.38174 11.3419 9.38174 11.9996C9.38174 12.6583 8.85375 13.1903 8.20248 13.1903Z" fill="#11CDEF"/>
<path d="M20.6256 13.1302C20.5678 13.1885 20.3518 13.4353 20.1489 13.6402C18.9653 14.9234 15.8748 17.0218 14.2581 17.664C14.0126 17.7665 13.3919 17.9846 13.0592 18C12.7417 18 12.4385 17.9262 12.1494 17.7808C11.7883 17.577 11.5003 17.2554 11.341 16.8764C11.2396 16.6143 11.0803 15.8267 11.0803 15.8124C10.9221 14.9521 10.8359 13.5531 10.8359 12.0066C10.8359 10.535 10.9221 9.19332 11.0519 8.31871C11.0661 8.30329 11.2254 7.32623 11.3988 6.99137C11.7163 6.37892 12.337 6 13.0014 6H13.0592C13.4923 6.01432 14.4021 6.39435 14.4021 6.40756C15.9326 7.04975 18.95 9.04681 20.1631 10.3742C20.1631 10.3742 20.5056 10.7156 20.654 10.9282C20.8853 11.2344 21.0009 11.6134 21.0009 11.9923C21.0009 12.4153 20.8711 12.8085 20.6256 13.1302Z" fill="#11CDEF"/>
</svg>
