<svg width="375" height="293" viewBox="0 0 375 293" fill="none" xmlns="http://www.w3.org/2000/svg">
<path d="M62.8222 149.3C62.0222 149.3 61.2755 149.16 60.5822 148.88C59.9022 148.587 59.3222 148.18 58.8422 147.66C58.3622 147.14 58.0222 146.52 57.8222 145.8L60.1222 145.24C60.3355 145.853 60.6755 146.327 61.1422 146.66C61.6089 146.993 62.1755 147.16 62.8422 147.16C63.3222 147.16 63.7489 147.067 64.1222 146.88C64.4955 146.693 64.7889 146.44 65.0022 146.12C65.2289 145.8 65.3422 145.433 65.3422 145.02C65.3422 144.513 65.1555 144.093 64.7822 143.76C64.4222 143.413 63.8489 143.153 63.0622 142.98L62.3222 142.82C60.9089 142.513 59.8622 142.007 59.1822 141.3C58.5155 140.593 58.1822 139.733 58.1822 138.72C58.1822 138.107 58.3022 137.547 58.5422 137.04C58.7822 136.52 59.1155 136.073 59.5422 135.7C59.9689 135.313 60.4689 135.02 61.0422 134.82C61.6155 134.607 62.2355 134.5 62.9022 134.5C63.6622 134.5 64.3622 134.64 65.0022 134.92C65.6422 135.2 66.1889 135.6 66.6422 136.12C67.0955 136.627 67.4155 137.233 67.6022 137.94L65.3222 138.5C65.1089 137.9 64.7889 137.44 64.3622 137.12C63.9355 136.8 63.4289 136.64 62.8422 136.64C62.4155 136.64 62.0355 136.727 61.7022 136.9C61.3822 137.06 61.1222 137.287 60.9222 137.58C60.7355 137.86 60.6422 138.18 60.6422 138.54C60.6422 139.06 60.8355 139.473 61.2222 139.78C61.6089 140.087 62.2022 140.333 63.0022 140.52L63.7422 140.68C66.4622 141.293 67.8222 142.673 67.8222 144.82C67.8222 145.473 67.6955 146.08 67.4422 146.64C67.2022 147.187 66.8555 147.66 66.4022 148.06C65.9489 148.447 65.4155 148.753 64.8022 148.98C64.2022 149.193 63.5422 149.3 62.8222 149.3ZM74.9242 149.3C74.1642 149.3 73.4576 149.167 72.8042 148.9C72.1642 148.62 71.6042 148.233 71.1242 147.74C70.6442 147.233 70.2709 146.647 70.0042 145.98C69.7376 145.3 69.6042 144.56 69.6042 143.76C69.6042 142.973 69.7376 142.247 70.0042 141.58C70.2709 140.9 70.6442 140.313 71.1242 139.82C71.6176 139.313 72.1909 138.927 72.8442 138.66C73.5109 138.38 74.2309 138.24 75.0042 138.24C75.7642 138.24 76.4642 138.38 77.1042 138.66C77.7576 138.927 78.3242 139.313 78.8042 139.82C79.2842 140.313 79.6576 140.893 79.9242 141.56C80.1909 142.227 80.3242 142.96 80.3242 143.76C80.3242 144.56 80.1909 145.3 79.9242 145.98C79.6576 146.647 79.2776 147.233 78.7842 147.74C78.3042 148.233 77.7309 148.62 77.0642 148.9C76.4109 149.167 75.6976 149.3 74.9242 149.3ZM74.9642 147.22C75.5376 147.22 76.0509 147.073 76.5042 146.78C76.9576 146.473 77.3109 146.06 77.5642 145.54C77.8309 145.02 77.9642 144.427 77.9642 143.76C77.9642 143.093 77.8309 142.507 77.5642 142C77.3109 141.48 76.9576 141.073 76.5042 140.78C76.0509 140.473 75.5376 140.32 74.9642 140.32C74.3909 140.32 73.8776 140.473 73.4242 140.78C72.9709 141.073 72.6109 141.48 72.3442 142C72.0909 142.507 71.9642 143.093 71.9642 143.76C71.9642 144.427 72.0909 145.02 72.3442 145.54C72.6109 146.06 72.9709 146.473 73.4242 146.78C73.8776 147.073 74.3909 147.22 74.9642 147.22ZM82.3494 149V138.54H84.4494L84.5294 139.94C84.836 139.42 85.256 139.007 85.7894 138.7C86.3227 138.393 86.9294 138.24 87.6094 138.24C88.3427 138.24 88.9894 138.427 89.5494 138.8C90.1094 139.16 90.5427 139.66 90.8494 140.3C91.0494 139.887 91.316 139.527 91.6494 139.22C91.996 138.913 92.396 138.673 92.8494 138.5C93.316 138.327 93.816 138.24 94.3494 138.24C95.1227 138.24 95.796 138.427 96.3694 138.8C96.9427 139.16 97.3827 139.68 97.6894 140.36C98.0094 141.027 98.1694 141.827 98.1694 142.76V149H95.8694V143.02C95.8694 142.153 95.6827 141.487 95.3094 141.02C94.936 140.553 94.4227 140.32 93.7694 140.32C93.316 140.32 92.9094 140.433 92.5494 140.66C92.2027 140.873 91.9227 141.18 91.7094 141.58C91.5094 141.967 91.4094 142.407 91.4094 142.9V149H89.1094V143.02C89.1094 142.153 88.9227 141.487 88.5494 141.02C88.176 140.553 87.6627 140.32 87.0094 140.32C86.556 140.32 86.1494 140.433 85.7894 140.66C85.4427 140.873 85.1627 141.18 84.9494 141.58C84.7494 141.967 84.6494 142.407 84.6494 142.9V149H82.3494ZM105.51 149.3C104.737 149.3 104.023 149.167 103.37 148.9C102.73 148.62 102.17 148.233 101.69 147.74C101.21 147.247 100.837 146.667 100.57 146C100.317 145.32 100.19 144.573 100.19 143.76C100.19 142.973 100.317 142.247 100.57 141.58C100.837 140.913 101.197 140.333 101.65 139.84C102.117 139.333 102.663 138.94 103.29 138.66C103.917 138.38 104.597 138.24 105.33 138.24C106.063 138.24 106.73 138.373 107.33 138.64C107.943 138.893 108.47 139.26 108.91 139.74C109.363 140.22 109.71 140.793 109.95 141.46C110.19 142.113 110.31 142.84 110.31 143.64V144.32H102.57C102.637 144.933 102.797 145.467 103.05 145.92C103.317 146.36 103.657 146.7 104.07 146.94C104.483 147.18 104.963 147.3 105.51 147.3C106.603 147.3 107.457 146.813 108.07 145.84L110.09 146.62C109.85 147.167 109.497 147.647 109.03 148.06C108.577 148.46 108.043 148.767 107.43 148.98C106.83 149.193 106.19 149.3 105.51 149.3ZM105.33 140.1C104.863 140.1 104.443 140.207 104.07 140.42C103.71 140.633 103.403 140.933 103.15 141.32C102.897 141.707 102.723 142.16 102.63 142.68H107.91C107.83 142.16 107.677 141.707 107.45 141.32C107.223 140.933 106.923 140.633 106.55 140.42C106.19 140.207 105.783 140.1 105.33 140.1ZM121.389 149.3C120.629 149.3 119.922 149.167 119.269 148.9C118.629 148.62 118.069 148.233 117.589 147.74C117.109 147.233 116.736 146.647 116.469 145.98C116.202 145.3 116.069 144.56 116.069 143.76C116.069 142.973 116.202 142.247 116.469 141.58C116.736 140.9 117.109 140.313 117.589 139.82C118.082 139.313 118.656 138.927 119.309 138.66C119.976 138.38 120.696 138.24 121.469 138.24C122.229 138.24 122.929 138.38 123.569 138.66C124.222 138.927 124.789 139.313 125.269 139.82C125.749 140.313 126.122 140.893 126.389 141.56C126.656 142.227 126.789 142.96 126.789 143.76C126.789 144.56 126.656 145.3 126.389 145.98C126.122 146.647 125.742 147.233 125.249 147.74C124.769 148.233 124.196 148.62 123.529 148.9C122.876 149.167 122.162 149.3 121.389 149.3ZM121.429 147.22C122.002 147.22 122.516 147.073 122.969 146.78C123.422 146.473 123.776 146.06 124.029 145.54C124.296 145.02 124.429 144.427 124.429 143.76C124.429 143.093 124.296 142.507 124.029 142C123.776 141.48 123.422 141.073 122.969 140.78C122.516 140.473 122.002 140.32 121.429 140.32C120.856 140.32 120.342 140.473 119.889 140.78C119.436 141.073 119.076 141.48 118.809 142C118.556 142.507 118.429 143.093 118.429 143.76C118.429 144.427 118.556 145.02 118.809 145.54C119.076 146.06 119.436 146.473 119.889 146.78C120.342 147.073 120.856 147.22 121.429 147.22ZM129.481 149V140.4H127.641V138.54H129.481V137.8C129.481 137.027 129.641 136.353 129.961 135.78C130.281 135.193 130.721 134.74 131.281 134.42C131.841 134.087 132.481 133.92 133.201 133.92C133.614 133.92 133.987 133.973 134.321 134.08C134.667 134.173 134.974 134.293 135.241 134.44L134.721 136.2C134.547 136.107 134.347 136.033 134.121 135.98C133.907 135.913 133.694 135.88 133.481 135.88C132.907 135.88 132.481 136.06 132.201 136.42C131.921 136.767 131.781 137.267 131.781 137.92V138.54H134.781V140.4H131.781V149H129.481ZM145.068 149.3C144.014 149.3 143.188 149 142.588 148.4C141.988 147.787 141.688 146.913 141.688 145.78V140.4H139.848V138.54H141.688V135H143.988V138.54H147.028V140.4H143.988V145.54C143.988 146.1 144.101 146.533 144.328 146.84C144.568 147.133 144.914 147.28 145.368 147.28C145.608 147.28 145.868 147.247 146.148 147.18C146.428 147.1 146.688 146.993 146.928 146.86L147.448 148.6C147.141 148.813 146.781 148.98 146.368 149.1C145.968 149.233 145.534 149.3 145.068 149.3ZM149.263 149V134.12H151.563V139.8C151.883 139.32 152.31 138.94 152.843 138.66C153.377 138.38 153.977 138.24 154.643 138.24C155.43 138.24 156.11 138.427 156.683 138.8C157.27 139.173 157.723 139.7 158.043 140.38C158.363 141.06 158.523 141.86 158.523 142.78V149H156.223V143.04C156.223 142.187 156.03 141.52 155.643 141.04C155.27 140.56 154.743 140.32 154.063 140.32C153.583 140.32 153.15 140.433 152.763 140.66C152.39 140.887 152.097 141.193 151.883 141.58C151.67 141.967 151.563 142.413 151.563 142.92V149H149.263ZM165.862 149.3C165.088 149.3 164.375 149.167 163.722 148.9C163.082 148.62 162.522 148.233 162.042 147.74C161.562 147.247 161.188 146.667 160.922 146C160.668 145.32 160.542 144.573 160.542 143.76C160.542 142.973 160.668 142.247 160.922 141.58C161.188 140.913 161.548 140.333 162.002 139.84C162.468 139.333 163.015 138.94 163.642 138.66C164.268 138.38 164.948 138.24 165.682 138.24C166.415 138.24 167.082 138.373 167.682 138.64C168.295 138.893 168.822 139.26 169.262 139.74C169.715 140.22 170.062 140.793 170.302 141.46C170.542 142.113 170.662 142.84 170.662 143.64V144.32H162.922C162.988 144.933 163.148 145.467 163.402 145.92C163.668 146.36 164.008 146.7 164.422 146.94C164.835 147.18 165.315 147.3 165.862 147.3C166.955 147.3 167.808 146.813 168.422 145.84L170.442 146.62C170.202 147.167 169.848 147.647 169.382 148.06C168.928 148.46 168.395 148.767 167.782 148.98C167.182 149.193 166.542 149.3 165.862 149.3ZM165.682 140.1C165.215 140.1 164.795 140.207 164.422 140.42C164.062 140.633 163.755 140.933 163.502 141.32C163.248 141.707 163.075 142.16 162.982 142.68H168.262C168.182 142.16 168.028 141.707 167.802 141.32C167.575 140.933 167.275 140.633 166.902 140.42C166.542 140.207 166.135 140.1 165.682 140.1ZM180.461 149.3C179.781 149.3 179.147 149.187 178.561 148.96C177.987 148.733 177.494 148.413 177.081 148C176.681 147.573 176.394 147.073 176.221 146.5L178.301 145.96C178.474 146.413 178.754 146.767 179.141 147.02C179.527 147.273 179.974 147.4 180.481 147.4C181.001 147.4 181.427 147.28 181.761 147.04C182.094 146.787 182.261 146.467 182.261 146.08C182.261 145.747 182.127 145.467 181.861 145.24C181.594 145.013 181.161 144.847 180.561 144.74L179.901 144.62C178.781 144.42 177.934 144.06 177.361 143.54C176.801 143.02 176.521 142.353 176.521 141.54C176.521 140.887 176.687 140.313 177.021 139.82C177.354 139.327 177.814 138.94 178.401 138.66C178.987 138.38 179.661 138.24 180.421 138.24C181.074 138.24 181.674 138.353 182.221 138.58C182.767 138.807 183.227 139.127 183.601 139.54C183.974 139.953 184.241 140.44 184.401 141L182.341 141.5C182.181 141.073 181.927 140.74 181.581 140.5C181.247 140.247 180.854 140.12 180.401 140.12C179.934 140.12 179.547 140.24 179.241 140.48C178.934 140.707 178.781 141 178.781 141.36C178.781 141.667 178.914 141.92 179.181 142.12C179.461 142.32 179.927 142.48 180.581 142.6L181.241 142.72C182.307 142.907 183.127 143.273 183.701 143.82C184.274 144.367 184.561 145.047 184.561 145.86C184.561 146.353 184.461 146.813 184.261 147.24C184.061 147.653 183.774 148.02 183.401 148.34C183.041 148.647 182.607 148.88 182.101 149.04C181.607 149.213 181.061 149.3 180.461 149.3ZM190.654 149.3C189.6 149.3 188.774 149 188.174 148.4C187.574 147.787 187.274 146.913 187.274 145.78V140.4H185.434V138.54H187.274V135H189.574V138.54H192.614V140.4H189.574V145.54C189.574 146.1 189.687 146.533 189.914 146.84C190.154 147.133 190.5 147.28 190.954 147.28C191.194 147.28 191.454 147.247 191.734 147.18C192.014 147.1 192.274 146.993 192.514 146.86L193.034 148.6C192.727 148.813 192.367 148.98 191.954 149.1C191.554 149.233 191.12 149.3 190.654 149.3ZM199.514 149.3C198.754 149.3 198.047 149.167 197.394 148.9C196.754 148.62 196.194 148.233 195.714 147.74C195.234 147.233 194.861 146.647 194.594 145.98C194.327 145.3 194.194 144.56 194.194 143.76C194.194 142.973 194.327 142.247 194.594 141.58C194.861 140.9 195.234 140.313 195.714 139.82C196.207 139.313 196.781 138.927 197.434 138.66C198.101 138.38 198.821 138.24 199.594 138.24C200.354 138.24 201.054 138.38 201.694 138.66C202.347 138.927 202.914 139.313 203.394 139.82C203.874 140.313 204.247 140.893 204.514 141.56C204.781 142.227 204.914 142.96 204.914 143.76C204.914 144.56 204.781 145.3 204.514 145.98C204.247 146.647 203.867 147.233 203.374 147.74C202.894 148.233 202.321 148.62 201.654 148.9C201.001 149.167 200.287 149.3 199.514 149.3ZM199.554 147.22C200.127 147.22 200.641 147.073 201.094 146.78C201.547 146.473 201.901 146.06 202.154 145.54C202.421 145.02 202.554 144.427 202.554 143.76C202.554 143.093 202.421 142.507 202.154 142C201.901 141.48 201.547 141.073 201.094 140.78C200.641 140.473 200.127 140.32 199.554 140.32C198.981 140.32 198.467 140.473 198.014 140.78C197.561 141.073 197.201 141.48 196.934 142C196.681 142.507 196.554 143.093 196.554 143.76C196.554 144.427 196.681 145.02 196.934 145.54C197.201 146.06 197.561 146.473 198.014 146.78C198.467 147.073 198.981 147.22 199.554 147.22ZM206.939 149V138.54H209.039L209.139 140.26C209.406 139.673 209.773 139.22 210.239 138.9C210.719 138.567 211.279 138.4 211.919 138.4C212.119 138.4 212.313 138.413 212.499 138.44C212.686 138.467 212.853 138.513 212.999 138.58L212.739 140.82C212.593 140.767 212.439 140.733 212.279 140.72C212.119 140.693 211.959 140.68 211.799 140.68C210.999 140.68 210.373 140.947 209.919 141.48C209.466 142.013 209.239 142.753 209.239 143.7V149H206.939ZM217.233 135.62C217.233 135.873 217.166 136.107 217.033 136.32C216.913 136.533 216.746 136.707 216.533 136.84C216.32 136.96 216.086 137.02 215.833 137.02C215.58 137.02 215.346 136.96 215.133 136.84C214.92 136.707 214.746 136.533 214.613 136.32C214.493 136.107 214.433 135.873 214.433 135.62C214.433 135.367 214.493 135.133 214.613 134.92C214.746 134.707 214.92 134.54 215.133 134.42C215.346 134.287 215.58 134.22 215.833 134.22C216.086 134.22 216.32 134.287 216.533 134.42C216.746 134.54 216.913 134.707 217.033 134.92C217.166 135.133 217.233 135.367 217.233 135.62ZM214.693 149V138.54H216.993V149H214.693ZM224.338 149.3C223.565 149.3 222.852 149.167 222.198 148.9C221.558 148.62 220.998 148.233 220.518 147.74C220.038 147.247 219.665 146.667 219.398 146C219.145 145.32 219.018 144.573 219.018 143.76C219.018 142.973 219.145 142.247 219.398 141.58C219.665 140.913 220.025 140.333 220.478 139.84C220.945 139.333 221.492 138.94 222.118 138.66C222.745 138.38 223.425 138.24 224.158 138.24C224.892 138.24 225.558 138.373 226.158 138.64C226.772 138.893 227.298 139.26 227.738 139.74C228.192 140.22 228.538 140.793 228.778 141.46C229.018 142.113 229.138 142.84 229.138 143.64V144.32H221.398C221.465 144.933 221.625 145.467 221.878 145.92C222.145 146.36 222.485 146.7 222.898 146.94C223.312 147.18 223.792 147.3 224.338 147.3C225.432 147.3 226.285 146.813 226.898 145.84L228.918 146.62C228.678 147.167 228.325 147.647 227.858 148.06C227.405 148.46 226.872 148.767 226.258 148.98C225.658 149.193 225.018 149.3 224.338 149.3ZM224.158 140.1C223.692 140.1 223.272 140.207 222.898 140.42C222.538 140.633 222.232 140.933 221.978 141.32C221.725 141.707 221.552 142.16 221.458 142.68H226.738C226.658 142.16 226.505 141.707 226.278 141.32C226.052 140.933 225.752 140.633 225.378 140.42C225.018 140.207 224.612 140.1 224.158 140.1ZM234.758 149.3C234.078 149.3 233.444 149.187 232.858 148.96C232.284 148.733 231.791 148.413 231.378 148C230.978 147.573 230.691 147.073 230.518 146.5L232.598 145.96C232.771 146.413 233.051 146.767 233.438 147.02C233.824 147.273 234.271 147.4 234.778 147.4C235.298 147.4 235.724 147.28 236.058 147.04C236.391 146.787 236.558 146.467 236.558 146.08C236.558 145.747 236.424 145.467 236.158 145.24C235.891 145.013 235.458 144.847 234.858 144.74L234.198 144.62C233.078 144.42 232.231 144.06 231.658 143.54C231.098 143.02 230.818 142.353 230.818 141.54C230.818 140.887 230.984 140.313 231.318 139.82C231.651 139.327 232.111 138.94 232.698 138.66C233.284 138.38 233.958 138.24 234.718 138.24C235.371 138.24 235.971 138.353 236.518 138.58C237.064 138.807 237.524 139.127 237.898 139.54C238.271 139.953 238.538 140.44 238.698 141L236.638 141.5C236.478 141.073 236.224 140.74 235.878 140.5C235.544 140.247 235.151 140.12 234.698 140.12C234.231 140.12 233.844 140.24 233.538 140.48C233.231 140.707 233.078 141 233.078 141.36C233.078 141.667 233.211 141.92 233.478 142.12C233.758 142.32 234.224 142.48 234.878 142.6L235.538 142.72C236.604 142.907 237.424 143.273 237.998 143.82C238.571 144.367 238.858 145.047 238.858 145.86C238.858 146.353 238.758 146.813 238.558 147.24C238.358 147.653 238.071 148.02 237.698 148.34C237.338 148.647 236.904 148.88 236.398 149.04C235.904 149.213 235.358 149.3 234.758 149.3ZM245.946 149V140.4H244.106V138.54H245.946V137.8C245.946 137.027 246.106 136.353 246.426 135.78C246.746 135.193 247.186 134.74 247.746 134.42C248.306 134.087 248.946 133.92 249.666 133.92C250.079 133.92 250.452 133.973 250.786 134.08C251.132 134.173 251.439 134.293 251.706 134.44L251.186 136.2C251.012 136.107 250.812 136.033 250.586 135.98C250.372 135.913 250.159 135.88 249.946 135.88C249.372 135.88 248.946 136.06 248.666 136.42C248.386 136.767 248.246 137.267 248.246 137.92V138.54H251.246V140.4H248.246V149H245.946ZM252.955 149V138.54H255.055L255.155 140.26C255.422 139.673 255.788 139.22 256.255 138.9C256.735 138.567 257.295 138.4 257.935 138.4C258.135 138.4 258.328 138.413 258.515 138.44C258.702 138.467 258.868 138.513 259.015 138.58L258.755 140.82C258.608 140.767 258.455 140.733 258.295 140.72C258.135 140.693 257.975 140.68 257.815 140.68C257.015 140.68 256.388 140.947 255.935 141.48C255.482 142.013 255.255 142.753 255.255 143.7V149H252.955ZM265.256 149.3C264.496 149.3 263.79 149.167 263.136 148.9C262.496 148.62 261.936 148.233 261.456 147.74C260.976 147.233 260.603 146.647 260.336 145.98C260.07 145.3 259.936 144.56 259.936 143.76C259.936 142.973 260.07 142.247 260.336 141.58C260.603 140.9 260.976 140.313 261.456 139.82C261.95 139.313 262.523 138.927 263.176 138.66C263.843 138.38 264.563 138.24 265.336 138.24C266.096 138.24 266.796 138.38 267.436 138.66C268.09 138.927 268.656 139.313 269.136 139.82C269.616 140.313 269.99 140.893 270.256 141.56C270.523 142.227 270.656 142.96 270.656 143.76C270.656 144.56 270.523 145.3 270.256 145.98C269.99 146.647 269.61 147.233 269.116 147.74C268.636 148.233 268.063 148.62 267.396 148.9C266.743 149.167 266.03 149.3 265.256 149.3ZM265.296 147.22C265.87 147.22 266.383 147.073 266.836 146.78C267.29 146.473 267.643 146.06 267.896 145.54C268.163 145.02 268.296 144.427 268.296 143.76C268.296 143.093 268.163 142.507 267.896 142C267.643 141.48 267.29 141.073 266.836 140.78C266.383 140.473 265.87 140.32 265.296 140.32C264.723 140.32 264.21 140.473 263.756 140.78C263.303 141.073 262.943 141.48 262.676 142C262.423 142.507 262.296 143.093 262.296 143.76C262.296 144.427 262.423 145.02 262.676 145.54C262.943 146.06 263.303 146.473 263.756 146.78C264.21 147.073 264.723 147.22 265.296 147.22ZM272.681 149V138.54H274.781L274.861 139.94C275.168 139.42 275.588 139.007 276.121 138.7C276.655 138.393 277.261 138.24 277.941 138.24C278.675 138.24 279.321 138.427 279.881 138.8C280.441 139.16 280.875 139.66 281.181 140.3C281.381 139.887 281.648 139.527 281.981 139.22C282.328 138.913 282.728 138.673 283.181 138.5C283.648 138.327 284.148 138.24 284.681 138.24C285.455 138.24 286.128 138.427 286.701 138.8C287.275 139.16 287.715 139.68 288.021 140.36C288.341 141.027 288.501 141.827 288.501 142.76V149H286.201V143.02C286.201 142.153 286.015 141.487 285.641 141.02C285.268 140.553 284.755 140.32 284.101 140.32C283.648 140.32 283.241 140.433 282.881 140.66C282.535 140.873 282.255 141.18 282.041 141.58C281.841 141.967 281.741 142.407 281.741 142.9V149H279.441V143.02C279.441 142.153 279.255 141.487 278.881 141.02C278.508 140.553 277.995 140.32 277.341 140.32C276.888 140.32 276.481 140.433 276.121 140.66C275.775 140.873 275.495 141.18 275.281 141.58C275.081 141.967 274.981 142.407 274.981 142.9V149H272.681ZM300.1 149.3C299.34 149.3 298.633 149.167 297.98 148.9C297.34 148.62 296.78 148.233 296.3 147.74C295.82 147.233 295.447 146.647 295.18 145.98C294.913 145.3 294.78 144.56 294.78 143.76C294.78 142.973 294.913 142.247 295.18 141.58C295.447 140.9 295.82 140.313 296.3 139.82C296.793 139.313 297.367 138.927 298.02 138.66C298.687 138.38 299.407 138.24 300.18 138.24C300.94 138.24 301.64 138.38 302.28 138.66C302.933 138.927 303.5 139.313 303.98 139.82C304.46 140.313 304.833 140.893 305.1 141.56C305.367 142.227 305.5 142.96 305.5 143.76C305.5 144.56 305.367 145.3 305.1 145.98C304.833 146.647 304.453 147.233 303.96 147.74C303.48 148.233 302.907 148.62 302.24 148.9C301.587 149.167 300.873 149.3 300.1 149.3ZM300.14 147.22C300.713 147.22 301.227 147.073 301.68 146.78C302.133 146.473 302.487 146.06 302.74 145.54C303.007 145.02 303.14 144.427 303.14 143.76C303.14 143.093 303.007 142.507 302.74 142C302.487 141.48 302.133 141.073 301.68 140.78C301.227 140.473 300.713 140.32 300.14 140.32C299.567 140.32 299.053 140.473 298.6 140.78C298.147 141.073 297.787 141.48 297.52 142C297.267 142.507 297.14 143.093 297.14 143.76C297.14 144.427 297.267 145.02 297.52 145.54C297.787 146.06 298.147 146.473 298.6 146.78C299.053 147.073 299.567 147.22 300.14 147.22ZM312.125 149.3C311.192 149.3 310.378 149.1 309.685 148.7C309.005 148.3 308.472 147.733 308.085 147C307.712 146.253 307.525 145.38 307.525 144.38V138.54H309.825V144.42C309.825 145.287 310.032 145.973 310.445 146.48C310.858 146.973 311.425 147.22 312.145 147.22C312.865 147.22 313.432 146.973 313.845 146.48C314.258 145.973 314.465 145.287 314.465 144.42V138.54H316.765V144.38C316.765 145.367 316.572 146.233 316.185 146.98C315.812 147.713 315.278 148.287 314.585 148.7C313.892 149.1 313.072 149.3 312.125 149.3ZM319.244 149V138.54H321.344L321.444 140.26C321.711 139.673 322.077 139.22 322.544 138.9C323.024 138.567 323.584 138.4 324.224 138.4C324.424 138.4 324.617 138.413 324.804 138.44C324.991 138.467 325.157 138.513 325.304 138.58L325.044 140.82C324.897 140.767 324.744 140.733 324.584 140.72C324.424 140.693 324.264 140.68 324.104 140.68C323.304 140.68 322.677 140.947 322.224 141.48C321.771 142.013 321.544 142.753 321.544 143.7V149H319.244ZM90.9431 174V163.54H93.0431L93.1231 164.94C93.4298 164.42 93.8498 164.007 94.3831 163.7C94.9165 163.393 95.5231 163.24 96.2031 163.24C96.9365 163.24 97.5831 163.427 98.1431 163.8C98.7031 164.16 99.1365 164.66 99.4431 165.3C99.6431 164.887 99.9098 164.527 100.243 164.22C100.59 163.913 100.99 163.673 101.443 163.5C101.91 163.327 102.41 163.24 102.943 163.24C103.716 163.24 104.39 163.427 104.963 163.8C105.536 164.16 105.976 164.68 106.283 165.36C106.603 166.027 106.763 166.827 106.763 167.76V174H104.463V168.02C104.463 167.153 104.276 166.487 103.903 166.02C103.53 165.553 103.016 165.32 102.363 165.32C101.91 165.32 101.503 165.433 101.143 165.66C100.796 165.873 100.516 166.18 100.303 166.58C100.103 166.967 100.003 167.407 100.003 167.9V174H97.7031V168.02C97.7031 167.153 97.5165 166.487 97.1431 166.02C96.7698 165.553 96.2565 165.32 95.6031 165.32C95.1498 165.32 94.7431 165.433 94.3831 165.66C94.0365 165.873 93.7565 166.18 93.5431 166.58C93.3431 166.967 93.2431 167.407 93.2431 167.9V174H90.9431ZM114.104 174.3C113.331 174.3 112.617 174.167 111.964 173.9C111.324 173.62 110.764 173.233 110.284 172.74C109.804 172.247 109.431 171.667 109.164 171C108.911 170.32 108.784 169.573 108.784 168.76C108.784 167.973 108.911 167.247 109.164 166.58C109.431 165.913 109.791 165.333 110.244 164.84C110.711 164.333 111.257 163.94 111.884 163.66C112.511 163.38 113.191 163.24 113.924 163.24C114.657 163.24 115.324 163.373 115.924 163.64C116.537 163.893 117.064 164.26 117.504 164.74C117.957 165.22 118.304 165.793 118.544 166.46C118.784 167.113 118.904 167.84 118.904 168.64V169.32H111.164C111.231 169.933 111.391 170.467 111.644 170.92C111.911 171.36 112.251 171.7 112.664 171.94C113.077 172.18 113.557 172.3 114.104 172.3C115.197 172.3 116.051 171.813 116.664 170.84L118.684 171.62C118.444 172.167 118.091 172.647 117.624 173.06C117.171 173.46 116.637 173.767 116.024 173.98C115.424 174.193 114.784 174.3 114.104 174.3ZM113.924 165.1C113.457 165.1 113.037 165.207 112.664 165.42C112.304 165.633 111.997 165.933 111.744 166.32C111.491 166.707 111.317 167.16 111.224 167.68H116.504C116.424 167.16 116.271 166.707 116.044 166.32C115.817 165.933 115.517 165.633 115.144 165.42C114.784 165.207 114.377 165.1 113.924 165.1ZM125.383 174.3C124.689 174.3 124.043 174.16 123.443 173.88C122.856 173.6 122.343 173.213 121.903 172.72C121.463 172.227 121.116 171.647 120.863 170.98C120.623 170.313 120.503 169.593 120.503 168.82C120.503 168.033 120.629 167.3 120.883 166.62C121.136 165.94 121.489 165.347 121.943 164.84C122.396 164.333 122.923 163.94 123.523 163.66C124.136 163.38 124.796 163.24 125.503 163.24C126.196 163.24 126.829 163.387 127.403 163.68C127.976 163.973 128.449 164.387 128.823 164.92V159.12H131.123V174H129.023L128.923 172.32C128.549 172.933 128.056 173.42 127.443 173.78C126.829 174.127 126.143 174.3 125.383 174.3ZM125.863 172.22C126.436 172.22 126.949 172.073 127.403 171.78C127.856 171.473 128.209 171.06 128.463 170.54C128.729 170.02 128.863 169.433 128.863 168.78C128.863 168.113 128.729 167.52 128.463 167C128.209 166.48 127.856 166.073 127.403 165.78C126.949 165.473 126.436 165.32 125.863 165.32C125.289 165.32 124.776 165.473 124.323 165.78C123.869 166.073 123.509 166.48 123.243 167C122.989 167.52 122.863 168.113 122.863 168.78C122.863 169.433 122.989 170.02 123.243 170.54C123.509 171.06 123.869 171.473 124.323 171.78C124.776 172.073 125.289 172.22 125.863 172.22ZM136.139 160.62C136.139 160.873 136.073 161.107 135.939 161.32C135.819 161.533 135.653 161.707 135.439 161.84C135.226 161.96 134.993 162.02 134.739 162.02C134.486 162.02 134.253 161.96 134.039 161.84C133.826 161.707 133.653 161.533 133.519 161.32C133.399 161.107 133.339 160.873 133.339 160.62C133.339 160.367 133.399 160.133 133.519 159.92C133.653 159.707 133.826 159.54 134.039 159.42C134.253 159.287 134.486 159.22 134.739 159.22C134.993 159.22 135.226 159.287 135.439 159.42C135.653 159.54 135.819 159.707 135.939 159.92C136.073 160.133 136.139 160.367 136.139 160.62ZM133.599 174V163.54H135.899V174H133.599ZM143.105 174.3C142.358 174.3 141.671 174.167 141.045 173.9C140.418 173.62 139.871 173.24 139.405 172.76C138.938 172.267 138.571 171.687 138.305 171.02C138.051 170.353 137.925 169.627 137.925 168.84C137.925 168.053 138.058 167.32 138.325 166.64C138.591 165.96 138.958 165.367 139.425 164.86C139.891 164.353 140.438 163.96 141.065 163.68C141.705 163.387 142.398 163.24 143.145 163.24C143.865 163.24 144.525 163.373 145.125 163.64C145.725 163.893 146.238 164.26 146.665 164.74C147.105 165.207 147.418 165.76 147.605 166.4L145.425 166.92C145.198 166.413 144.878 166.02 144.465 165.74C144.065 165.46 143.611 165.32 143.105 165.32C142.571 165.32 142.091 165.473 141.665 165.78C141.238 166.087 140.898 166.507 140.645 167.04C140.405 167.56 140.285 168.153 140.285 168.82C140.285 169.473 140.405 170.06 140.645 170.58C140.885 171.087 141.211 171.487 141.625 171.78C142.051 172.073 142.545 172.22 143.105 172.22C143.638 172.22 144.125 172.087 144.565 171.82C145.005 171.54 145.331 171.147 145.545 170.64L147.705 171.14C147.518 171.78 147.198 172.34 146.745 172.82C146.291 173.287 145.751 173.653 145.125 173.92C144.498 174.173 143.825 174.3 143.105 174.3ZM152.795 174.3C152.262 174.3 151.769 174.22 151.315 174.06C150.875 173.9 150.489 173.673 150.155 173.38C149.822 173.087 149.562 172.74 149.375 172.34C149.189 171.94 149.095 171.5 149.095 171.02C149.095 170.353 149.269 169.773 149.615 169.28C149.975 168.773 150.475 168.38 151.115 168.1C151.755 167.82 152.502 167.68 153.355 167.68C153.822 167.68 154.269 167.727 154.695 167.82C155.122 167.9 155.529 168.02 155.915 168.18V167.52C155.915 167.053 155.829 166.647 155.655 166.3C155.482 165.94 155.235 165.66 154.915 165.46C154.595 165.26 154.209 165.16 153.755 165.16C153.275 165.16 152.842 165.287 152.455 165.54C152.069 165.793 151.782 166.147 151.595 166.6L149.475 166.12C149.635 165.533 149.922 165.027 150.335 164.6C150.762 164.173 151.269 163.84 151.855 163.6C152.455 163.36 153.102 163.24 153.795 163.24C154.449 163.24 155.042 163.347 155.575 163.56C156.122 163.773 156.589 164.073 156.975 164.46C157.362 164.847 157.662 165.307 157.875 165.84C158.089 166.373 158.195 166.967 158.195 167.62V174H156.095L156.015 172.62C155.735 173.127 155.315 173.533 154.755 173.84C154.195 174.147 153.542 174.3 152.795 174.3ZM151.415 170.92C151.415 171.213 151.495 171.48 151.655 171.72C151.815 171.947 152.035 172.127 152.315 172.26C152.609 172.393 152.949 172.46 153.335 172.46C153.829 172.46 154.269 172.353 154.655 172.14C155.042 171.927 155.349 171.64 155.575 171.28C155.802 170.907 155.915 170.487 155.915 170.02V169.78C155.569 169.633 155.209 169.52 154.835 169.44C154.475 169.347 154.102 169.3 153.715 169.3C153.022 169.3 152.462 169.447 152.035 169.74C151.622 170.033 151.415 170.427 151.415 170.92ZM160.67 174V159.12H162.97V174H160.67ZM169.713 177.96V163.54H171.813L171.913 165.22C172.286 164.607 172.779 164.127 173.393 163.78C174.006 163.42 174.693 163.24 175.453 163.24C176.146 163.24 176.786 163.38 177.373 163.66C177.973 163.94 178.493 164.327 178.933 164.82C179.373 165.313 179.713 165.893 179.953 166.56C180.206 167.227 180.333 167.947 180.333 168.72C180.333 169.507 180.206 170.24 179.953 170.92C179.699 171.6 179.346 172.193 178.893 172.7C178.439 173.207 177.906 173.6 177.293 173.88C176.693 174.16 176.039 174.3 175.333 174.3C174.639 174.3 174.006 174.153 173.433 173.86C172.859 173.567 172.386 173.153 172.013 172.62V177.96H169.713ZM174.973 172.22C175.546 172.22 176.059 172.073 176.513 171.78C176.966 171.473 177.319 171.06 177.573 170.54C177.839 170.02 177.973 169.427 177.973 168.76C177.973 168.093 177.839 167.507 177.573 167C177.319 166.48 176.966 166.073 176.513 165.78C176.059 165.473 175.546 165.32 174.973 165.32C174.399 165.32 173.886 165.473 173.433 165.78C172.979 166.073 172.619 166.48 172.353 167C172.099 167.507 171.973 168.093 171.973 168.76C171.973 169.427 172.099 170.02 172.353 170.54C172.619 171.06 172.979 171.473 173.433 171.78C173.886 172.073 174.399 172.22 174.973 172.22ZM182.349 174V163.54H184.449L184.549 165.26C184.816 164.673 185.183 164.22 185.649 163.9C186.129 163.567 186.689 163.4 187.329 163.4C187.529 163.4 187.723 163.413 187.909 163.44C188.096 163.467 188.263 163.513 188.409 163.58L188.149 165.82C188.003 165.767 187.849 165.733 187.689 165.72C187.529 165.693 187.369 165.68 187.209 165.68C186.409 165.68 185.783 165.947 185.329 166.48C184.876 167.013 184.649 167.753 184.649 168.7V174H182.349ZM194.651 174.3C193.891 174.3 193.184 174.167 192.531 173.9C191.891 173.62 191.331 173.233 190.851 172.74C190.371 172.233 189.997 171.647 189.731 170.98C189.464 170.3 189.331 169.56 189.331 168.76C189.331 167.973 189.464 167.247 189.731 166.58C189.997 165.9 190.371 165.313 190.851 164.82C191.344 164.313 191.917 163.927 192.571 163.66C193.237 163.38 193.957 163.24 194.731 163.24C195.491 163.24 196.191 163.38 196.831 163.66C197.484 163.927 198.051 164.313 198.531 164.82C199.011 165.313 199.384 165.893 199.651 166.56C199.917 167.227 200.051 167.96 200.051 168.76C200.051 169.56 199.917 170.3 199.651 170.98C199.384 171.647 199.004 172.233 198.511 172.74C198.031 173.233 197.457 173.62 196.791 173.9C196.137 174.167 195.424 174.3 194.651 174.3ZM194.691 172.22C195.264 172.22 195.777 172.073 196.231 171.78C196.684 171.473 197.037 171.06 197.291 170.54C197.557 170.02 197.691 169.427 197.691 168.76C197.691 168.093 197.557 167.507 197.291 167C197.037 166.48 196.684 166.073 196.231 165.78C195.777 165.473 195.264 165.32 194.691 165.32C194.117 165.32 193.604 165.473 193.151 165.78C192.697 166.073 192.337 166.48 192.071 167C191.817 167.507 191.691 168.093 191.691 168.76C191.691 169.427 191.817 170.02 192.071 170.54C192.337 171.06 192.697 171.473 193.151 171.78C193.604 172.073 194.117 172.22 194.691 172.22ZM202.743 174V165.4H200.903V163.54H202.743V162.8C202.743 162.027 202.903 161.353 203.223 160.78C203.543 160.193 203.983 159.74 204.543 159.42C205.103 159.087 205.743 158.92 206.463 158.92C206.876 158.92 207.249 158.973 207.583 159.08C207.929 159.173 208.236 159.293 208.503 159.44L207.983 161.2C207.809 161.107 207.609 161.033 207.383 160.98C207.169 160.913 206.956 160.88 206.743 160.88C206.169 160.88 205.743 161.06 205.463 161.42C205.183 161.767 205.043 162.267 205.043 162.92V163.54H208.043V165.4H205.043V174H202.743ZM214.319 174.3C213.545 174.3 212.832 174.167 212.179 173.9C211.539 173.62 210.979 173.233 210.499 172.74C210.019 172.247 209.645 171.667 209.379 171C209.125 170.32 208.999 169.573 208.999 168.76C208.999 167.973 209.125 167.247 209.379 166.58C209.645 165.913 210.005 165.333 210.459 164.84C210.925 164.333 211.472 163.94 212.099 163.66C212.725 163.38 213.405 163.24 214.139 163.24C214.872 163.24 215.539 163.373 216.139 163.64C216.752 163.893 217.279 164.26 217.719 164.74C218.172 165.22 218.519 165.793 218.759 166.46C218.999 167.113 219.119 167.84 219.119 168.64V169.32H211.379C211.445 169.933 211.605 170.467 211.859 170.92C212.125 171.36 212.465 171.7 212.879 171.94C213.292 172.18 213.772 172.3 214.319 172.3C215.412 172.3 216.265 171.813 216.879 170.84L218.899 171.62C218.659 172.167 218.305 172.647 217.839 173.06C217.385 173.46 216.852 173.767 216.239 173.98C215.639 174.193 214.999 174.3 214.319 174.3ZM214.139 165.1C213.672 165.1 213.252 165.207 212.879 165.42C212.519 165.633 212.212 165.933 211.959 166.32C211.705 166.707 211.532 167.16 211.439 167.68H216.719C216.639 167.16 216.485 166.707 216.259 166.32C216.032 165.933 215.732 165.633 215.359 165.42C214.999 165.207 214.592 165.1 214.139 165.1ZM224.738 174.3C224.058 174.3 223.425 174.187 222.838 173.96C222.265 173.733 221.771 173.413 221.358 173C220.958 172.573 220.671 172.073 220.498 171.5L222.578 170.96C222.751 171.413 223.031 171.767 223.418 172.02C223.805 172.273 224.251 172.4 224.758 172.4C225.278 172.4 225.705 172.28 226.038 172.04C226.371 171.787 226.538 171.467 226.538 171.08C226.538 170.747 226.405 170.467 226.138 170.24C225.871 170.013 225.438 169.847 224.838 169.74L224.178 169.62C223.058 169.42 222.211 169.06 221.638 168.54C221.078 168.02 220.798 167.353 220.798 166.54C220.798 165.887 220.965 165.313 221.298 164.82C221.631 164.327 222.091 163.94 222.678 163.66C223.265 163.38 223.938 163.24 224.698 163.24C225.351 163.24 225.951 163.353 226.498 163.58C227.045 163.807 227.505 164.127 227.878 164.54C228.251 164.953 228.518 165.44 228.678 166L226.618 166.5C226.458 166.073 226.205 165.74 225.858 165.5C225.525 165.247 225.131 165.12 224.678 165.12C224.211 165.12 223.825 165.24 223.518 165.48C223.211 165.707 223.058 166 223.058 166.36C223.058 166.667 223.191 166.92 223.458 167.12C223.738 167.32 224.205 167.48 224.858 167.6L225.518 167.72C226.585 167.907 227.405 168.273 227.978 168.82C228.551 169.367 228.838 170.047 228.838 170.86C228.838 171.353 228.738 171.813 228.538 172.24C228.338 172.653 228.051 173.02 227.678 173.34C227.318 173.647 226.885 173.88 226.378 174.04C225.885 174.213 225.338 174.3 224.738 174.3ZM234.308 174.3C233.628 174.3 232.995 174.187 232.408 173.96C231.835 173.733 231.342 173.413 230.928 173C230.528 172.573 230.242 172.073 230.068 171.5L232.148 170.96C232.322 171.413 232.602 171.767 232.988 172.02C233.375 172.273 233.822 172.4 234.328 172.4C234.848 172.4 235.275 172.28 235.608 172.04C235.942 171.787 236.108 171.467 236.108 171.08C236.108 170.747 235.975 170.467 235.708 170.24C235.442 170.013 235.008 169.847 234.408 169.74L233.748 169.62C232.628 169.42 231.782 169.06 231.208 168.54C230.648 168.02 230.368 167.353 230.368 166.54C230.368 165.887 230.535 165.313 230.868 164.82C231.202 164.327 231.662 163.94 232.248 163.66C232.835 163.38 233.508 163.24 234.268 163.24C234.922 163.24 235.522 163.353 236.068 163.58C236.615 163.807 237.075 164.127 237.448 164.54C237.822 164.953 238.088 165.44 238.248 166L236.188 166.5C236.028 166.073 235.775 165.74 235.428 165.5C235.095 165.247 234.702 165.12 234.248 165.12C233.782 165.12 233.395 165.24 233.088 165.48C232.782 165.707 232.628 166 232.628 166.36C232.628 166.667 232.762 166.92 233.028 167.12C233.308 167.32 233.775 167.48 234.428 167.6L235.088 167.72C236.155 167.907 236.975 168.273 237.548 168.82C238.122 169.367 238.408 170.047 238.408 170.86C238.408 171.353 238.308 171.813 238.108 172.24C237.908 172.653 237.622 173.02 237.248 173.34C236.888 173.647 236.455 173.88 235.948 174.04C235.455 174.213 234.908 174.3 234.308 174.3ZM242.839 160.62C242.839 160.873 242.772 161.107 242.639 161.32C242.519 161.533 242.352 161.707 242.139 161.84C241.925 161.96 241.692 162.02 241.439 162.02C241.185 162.02 240.952 161.96 240.739 161.84C240.525 161.707 240.352 161.533 240.219 161.32C240.099 161.107 240.039 160.873 240.039 160.62C240.039 160.367 240.099 160.133 240.219 159.92C240.352 159.707 240.525 159.54 240.739 159.42C240.952 159.287 241.185 159.22 241.439 159.22C241.692 159.22 241.925 159.287 242.139 159.42C242.352 159.54 242.519 159.707 242.639 159.92C242.772 160.133 242.839 160.367 242.839 160.62ZM240.299 174V163.54H242.599V174H240.299ZM249.944 174.3C249.184 174.3 248.477 174.167 247.824 173.9C247.184 173.62 246.624 173.233 246.144 172.74C245.664 172.233 245.29 171.647 245.024 170.98C244.757 170.3 244.624 169.56 244.624 168.76C244.624 167.973 244.757 167.247 245.024 166.58C245.29 165.9 245.664 165.313 246.144 164.82C246.637 164.313 247.21 163.927 247.864 163.66C248.53 163.38 249.25 163.24 250.024 163.24C250.784 163.24 251.484 163.38 252.124 163.66C252.777 163.927 253.344 164.313 253.824 164.82C254.304 165.313 254.677 165.893 254.944 166.56C255.21 167.227 255.344 167.96 255.344 168.76C255.344 169.56 255.21 170.3 254.944 170.98C254.677 171.647 254.297 172.233 253.804 172.74C253.324 173.233 252.75 173.62 252.084 173.9C251.43 174.167 250.717 174.3 249.944 174.3ZM249.984 172.22C250.557 172.22 251.07 172.073 251.524 171.78C251.977 171.473 252.33 171.06 252.584 170.54C252.85 170.02 252.984 169.427 252.984 168.76C252.984 168.093 252.85 167.507 252.584 167C252.33 166.48 251.977 166.073 251.524 165.78C251.07 165.473 250.557 165.32 249.984 165.32C249.41 165.32 248.897 165.473 248.444 165.78C247.99 166.073 247.63 166.48 247.364 167C247.11 167.507 246.984 168.093 246.984 168.76C246.984 169.427 247.11 170.02 247.364 170.54C247.63 171.06 247.99 171.473 248.444 171.78C248.897 172.073 249.41 172.22 249.984 172.22ZM257.369 174V163.54H259.469L259.549 164.98C259.856 164.447 260.282 164.027 260.829 163.72C261.389 163.4 262.029 163.24 262.749 163.24C263.536 163.24 264.216 163.427 264.789 163.8C265.376 164.173 265.829 164.7 266.149 165.38C266.469 166.06 266.629 166.86 266.629 167.78V174H264.329V168.04C264.329 167.187 264.136 166.52 263.749 166.04C263.376 165.56 262.849 165.32 262.169 165.32C261.689 165.32 261.256 165.433 260.869 165.66C260.496 165.887 260.202 166.193 259.989 166.58C259.776 166.967 259.669 167.413 259.669 167.92V174H257.369ZM272.307 174.3C271.774 174.3 271.281 174.22 270.827 174.06C270.387 173.9 270.001 173.673 269.667 173.38C269.334 173.087 269.074 172.74 268.887 172.34C268.701 171.94 268.607 171.5 268.607 171.02C268.607 170.353 268.781 169.773 269.127 169.28C269.487 168.773 269.987 168.38 270.627 168.1C271.267 167.82 272.014 167.68 272.867 167.68C273.334 167.68 273.781 167.727 274.207 167.82C274.634 167.9 275.041 168.02 275.427 168.18V167.52C275.427 167.053 275.341 166.647 275.167 166.3C274.994 165.94 274.747 165.66 274.427 165.46C274.107 165.26 273.721 165.16 273.267 165.16C272.787 165.16 272.354 165.287 271.967 165.54C271.581 165.793 271.294 166.147 271.107 166.6L268.987 166.12C269.147 165.533 269.434 165.027 269.847 164.6C270.274 164.173 270.781 163.84 271.367 163.6C271.967 163.36 272.614 163.24 273.307 163.24C273.961 163.24 274.554 163.347 275.087 163.56C275.634 163.773 276.101 164.073 276.487 164.46C276.874 164.847 277.174 165.307 277.387 165.84C277.601 166.373 277.707 166.967 277.707 167.62V174H275.607L275.527 172.62C275.247 173.127 274.827 173.533 274.267 173.84C273.707 174.147 273.054 174.3 272.307 174.3ZM270.927 170.92C270.927 171.213 271.007 171.48 271.167 171.72C271.327 171.947 271.547 172.127 271.827 172.26C272.121 172.393 272.461 172.46 272.847 172.46C273.341 172.46 273.781 172.353 274.167 172.14C274.554 171.927 274.861 171.64 275.087 171.28C275.314 170.907 275.427 170.487 275.427 170.02V169.78C275.081 169.633 274.721 169.52 274.347 169.44C273.987 169.347 273.614 169.3 273.227 169.3C272.534 169.3 271.974 169.447 271.547 169.74C271.134 170.033 270.927 170.427 270.927 170.92ZM280.181 174V159.12H282.481V174H280.181ZM288.547 174.3C287.867 174.3 287.233 174.187 286.647 173.96C286.073 173.733 285.58 173.413 285.167 173C284.767 172.573 284.48 172.073 284.307 171.5L286.387 170.96C286.56 171.413 286.84 171.767 287.227 172.02C287.613 172.273 288.06 172.4 288.567 172.4C289.087 172.4 289.513 172.28 289.847 172.04C290.18 171.787 290.347 171.467 290.347 171.08C290.347 170.747 290.213 170.467 289.947 170.24C289.68 170.013 289.247 169.847 288.647 169.74L287.987 169.62C286.867 169.42 286.02 169.06 285.447 168.54C284.887 168.02 284.607 167.353 284.607 166.54C284.607 165.887 284.773 165.313 285.107 164.82C285.44 164.327 285.9 163.94 286.487 163.66C287.073 163.38 287.747 163.24 288.507 163.24C289.16 163.24 289.76 163.353 290.307 163.58C290.853 163.807 291.313 164.127 291.687 164.54C292.06 164.953 292.327 165.44 292.487 166L290.427 166.5C290.267 166.073 290.013 165.74 289.667 165.5C289.333 165.247 288.94 165.12 288.487 165.12C288.02 165.12 287.633 165.24 287.327 165.48C287.02 165.707 286.867 166 286.867 166.36C286.867 166.667 287 166.92 287.267 167.12C287.547 167.32 288.013 167.48 288.667 167.6L289.327 167.72C290.393 167.907 291.213 168.273 291.787 168.82C292.36 169.367 292.647 170.047 292.647 170.86C292.647 171.353 292.547 171.813 292.347 172.24C292.147 172.653 291.86 173.02 291.487 173.34C291.127 173.647 290.693 173.88 290.187 174.04C289.693 174.213 289.147 174.3 288.547 174.3Z" fill="#07132C"/>
<g filter="url(#filter0_d_1563_12803)">
<path d="M261.885 213.09L260.281 211L254.001 215.814L255.605 217.904L261.885 213.09Z" fill="#1F8DDF"/>
<path d="M262.53 214.718C262.53 214.718 264.883 214.451 266.022 214.596C267.015 214.726 268.398 213.848 268.734 213.619C268.78 213.588 268.841 213.596 268.871 213.642C269.337 214.252 269.223 215.123 268.612 215.596L266.121 217.505L267.802 219.688C268.352 220.406 268.214 221.437 267.496 221.986L263.279 225.216C262.561 225.766 261.529 225.628 260.979 224.911L256.624 219.238C256.395 218.94 256.456 218.52 256.746 218.291L261.583 214.588C261.881 214.359 262.301 214.42 262.53 214.718Z" fill="#1F8DDF"/>
</g>
<g filter="url(#filter1_d_1563_12803)">
<path d="M272.869 86.3244L298.088 95.3246C298.99 95.645 299.985 95.172 300.305 94.2708L305.685 79.1717C306.005 78.2705 305.532 77.2748 304.63 76.9544L279.411 67.9542C278.51 67.6338 277.514 68.1068 277.195 69.008L271.814 84.1071C271.498 85.0042 271.968 86.004 272.869 86.3244Z" fill="#FF4D41"/>
<path d="M280.081 84.9027L278.086 96.0531L273.888 82.6937L280.081 84.9027Z" fill="#FF4D41"/>
<path d="M290.434 77.3088C289.541 75.422 287.288 74.621 285.406 75.5172L285.1 75.6624L284.955 75.357C284.062 73.4702 281.808 72.6692 279.926 73.5653C278.04 74.4573 277.241 76.7102 278.138 78.5928L278.284 78.8982L281.52 85.7215L288.341 82.4898L288.646 82.3446C290.524 81.4443 291.328 79.1955 290.434 77.3088Z" fill="white"/>
<path d="M295.84 83.3172L296.479 83.5453C296.883 83.6826 297.236 83.6895 297.539 83.5661C297.842 83.4428 298.056 83.2063 298.181 82.8567C298.461 82.0717 298.21 81.5397 297.428 81.2607C297.06 81.1293 296.728 81.1301 296.432 81.2629C296.14 81.3937 295.932 81.6323 295.809 81.9788L294.958 81.6751C295.147 81.1447 295.497 80.7736 296.008 80.5619C296.523 80.3483 297.079 80.3481 297.677 80.5615C298.308 80.787 298.744 81.1308 298.984 81.5931C299.223 82.0554 299.237 82.5839 299.025 83.1788C298.921 83.4701 298.726 83.7183 298.438 83.9233C298.154 84.1295 297.825 84.242 297.452 84.2609C297.779 84.5088 297.994 84.8032 298.097 85.1442C298.203 85.4862 298.187 85.852 298.048 86.2414C297.834 86.8424 297.468 87.2492 296.949 87.4617C296.431 87.6743 295.858 87.6684 295.23 87.444C294.601 87.2197 294.15 86.8668 293.876 86.3852C293.605 85.9048 293.568 85.3855 293.767 84.8275L294.623 85.1328C294.497 85.4854 294.511 85.8085 294.666 86.1022C294.82 86.3959 295.091 86.6116 295.477 86.7495C295.888 86.8962 296.24 86.901 296.535 86.7641C296.829 86.6271 297.047 86.3578 297.191 85.9561C297.329 85.5667 297.316 85.225 297.151 84.9312C296.987 84.6373 296.68 84.4069 296.231 84.2399L295.592 84.0117L295.84 83.3172Z" fill="white"/>
</g>
<g clip-path="url(#clip0_1563_12803)" filter="url(#filter2_d_1563_12803)">
<path d="M347.121 205.545C348.439 204.081 348.557 201.896 347.403 200.298C344.511 196.292 341.219 192.626 337.546 189.32C336.082 188.002 333.897 187.884 332.299 189.038C328.293 191.93 324.626 195.222 321.321 198.895C320.003 200.359 319.885 202.544 321.039 204.142C323.931 208.148 327.223 211.814 330.896 215.12C332.36 216.438 334.545 216.556 336.143 215.402C340.149 212.51 343.815 209.218 347.121 205.545Z" fill="url(#paint0_radial_1563_12803)"/>
<path d="M345.665 205.171C346.834 203.871 346.939 201.932 345.915 200.515C343.349 196.96 340.427 193.706 337.168 190.773C335.869 189.603 333.93 189.499 332.512 190.522C328.958 193.089 325.704 196.01 322.771 199.269C321.601 200.569 321.497 202.508 322.52 203.925C325.087 207.48 328.008 210.734 331.267 213.667C332.566 214.837 334.505 214.941 335.923 213.917C339.478 211.351 342.731 208.43 345.665 205.171Z" fill="url(#paint1_linear_1563_12803)"/>
<path d="M321.641 198.54C321.533 198.658 321.426 198.776 321.319 198.895C320.001 200.359 319.883 202.544 321.037 204.142C323.929 208.148 327.221 211.815 330.894 215.12C332.358 216.438 334.543 216.556 336.141 215.402C336.27 215.309 336.399 215.215 336.528 215.121L321.641 198.54Z" fill="url(#paint2_linear_1563_12803)"/>
<path d="M336.139 215.402C338.292 213.848 340.346 212.178 342.299 210.396L342.698 202.981C342.817 201.993 342.525 200.968 341.803 200.103C340.318 198.324 338.763 196.599 337.157 194.929C335.822 193.542 333.962 193.405 332.318 194.418C332.028 194.597 331.75 194.796 331.467 194.987L327.322 198.708C327.206 198.848 327.098 198.997 326.971 199.127C326.163 199.957 325.743 200.972 325.753 201.985L325.347 209.53C327.085 211.494 328.934 213.358 330.892 215.12C332.356 216.438 334.541 216.555 336.139 215.402Z" fill="url(#paint3_linear_1563_12803)"/>
<path d="M336.141 215.402C334.544 216.556 332.358 216.438 330.894 215.12C328.937 213.358 327.087 211.494 325.349 209.531L325.755 201.997C325.765 202.818 326.059 203.639 326.657 204.358C328.139 206.139 329.693 207.866 331.302 209.533C332.757 211.041 334.923 211.133 336.525 209.782C338.226 208.349 339.884 206.86 341.492 205.322C342.191 204.655 342.597 203.835 342.7 202.986L342.301 210.397C340.348 212.178 338.293 213.848 336.141 215.402Z" fill="url(#paint4_linear_1563_12803)"/>
<path d="M337.878 202.575C337.974 201.585 337.671 200.56 336.954 199.762C335.597 198.25 333.27 198.125 331.758 199.482C330.96 200.199 330.549 201.186 330.538 202.18L329.891 214.202C330.221 214.511 330.555 214.817 330.891 215.12C332.356 216.438 334.541 216.555 336.138 215.402C336.505 215.137 336.87 214.868 337.231 214.597L337.878 202.575Z" fill="url(#paint5_linear_1563_12803)"/>
<path d="M340.022 212.386L340.542 202.711C340.592 202.452 340.525 202.174 340.335 201.963C340.012 201.603 339.458 201.573 339.099 201.896C338.887 202.086 338.791 202.355 338.812 202.618L338.207 213.851C338.821 213.373 339.426 212.884 340.022 212.386Z" fill="url(#paint6_linear_1563_12803)"/>
<path d="M331.467 194.987C331.75 194.796 332.028 194.597 332.318 194.418C333.962 193.405 335.822 193.542 337.157 194.929C338.763 196.599 340.318 198.324 341.803 200.103C343.145 201.711 343.005 203.874 341.49 205.322C339.882 206.859 338.224 208.348 336.523 209.782C334.921 211.132 332.755 211.04 331.3 209.533C329.691 207.866 328.137 206.139 326.655 204.358C325.315 202.747 325.504 200.633 326.971 199.127C327.098 198.997 327.206 198.848 327.322 198.708C328.704 197.467 330.086 196.227 331.467 194.987ZM329.891 206.106C330.599 206.895 331.284 207.705 332.021 208.466C333.175 209.66 334.593 209.758 335.853 208.679C337.422 207.335 338.961 205.953 340.465 204.537C341.673 203.401 341.744 201.965 340.663 200.707C339.289 199.111 337.881 197.543 336.442 196.006C335.317 194.805 333.894 194.706 332.645 195.768C331.051 197.123 329.492 198.523 327.973 199.963C326.784 201.091 326.746 202.5 327.8 203.766C328.469 204.569 329.192 205.328 329.891 206.106Z" fill="url(#paint7_linear_1563_12803)"/>
<path d="M331.467 194.987C331.75 194.796 332.028 194.597 332.318 194.418C333.962 193.405 335.822 193.542 337.157 194.929C338.763 196.599 340.318 198.324 341.803 200.103C343.145 201.711 343.005 203.874 341.49 205.322C339.882 206.859 338.224 208.348 336.523 209.782C334.921 211.132 332.755 211.04 331.3 209.533C329.691 207.866 328.137 206.139 326.655 204.358C325.315 202.747 325.504 200.633 326.971 199.127C327.098 198.997 327.206 198.848 327.322 198.708C328.704 197.467 330.086 196.227 331.467 194.987ZM329.891 206.106C330.599 206.895 331.284 207.705 332.021 208.466C333.175 209.66 334.593 209.758 335.853 208.679C337.422 207.335 338.961 205.953 340.465 204.537C341.673 203.401 341.744 201.965 340.663 200.707C339.289 199.111 337.881 197.543 336.442 196.006C335.317 194.805 333.894 194.706 332.645 195.768C331.051 197.123 329.492 198.523 327.973 199.963C326.784 201.091 326.746 202.5 327.8 203.766C328.469 204.569 329.192 205.328 329.891 206.106Z" fill="white"/>
<path d="M336.954 199.762C335.597 198.25 333.27 198.125 331.758 199.482C330.246 200.84 330.121 203.166 331.479 204.678C332.836 206.19 335.163 206.315 336.675 204.958C338.187 203.6 338.312 201.274 336.954 199.762ZM332.421 203.832C331.531 202.84 331.613 201.315 332.605 200.425C333.596 199.534 335.122 199.617 336.012 200.608C336.902 201.6 336.82 203.125 335.828 204.015C334.837 204.905 333.312 204.823 332.421 203.832Z" fill="white"/>
<path d="M340.268 203.199C339.909 203.522 339.355 203.492 339.032 203.132C338.709 202.772 338.739 202.219 339.099 201.896C339.458 201.573 340.012 201.603 340.335 201.963C340.658 202.322 340.628 202.876 340.268 203.199Z" fill="white"/>
</g>
<g filter="url(#filter3_d_1563_12803)">
<path d="M348.377 48.0932C350.371 42.0873 347.116 35.6026 341.106 33.6093C335.096 31.6159 328.607 34.8688 326.612 40.8747C324.617 46.8806 327.872 53.3653 333.882 55.3586C339.893 57.3519 346.382 54.0991 348.377 48.0932Z" fill="#FFA031"/>
</g>
<path d="M340.249 44.9462C339.924 45.1397 339.681 45.4162 339.536 45.734L336.258 45.5958C336.224 45.4922 336.175 45.3954 336.113 45.2987C336.058 45.2019 335.989 45.1121 335.919 45.0292L337.365 42.0852C337.717 42.1059 338.077 42.0299 338.402 41.8364C339.26 41.325 339.543 40.2193 339.031 39.3555C338.52 38.4986 337.413 38.2152 336.549 38.7266C335.691 39.238 335.408 40.3437 335.919 41.2076C335.975 41.3043 336.044 41.3942 336.113 41.4771L334.668 44.421C334.315 44.4003 333.955 44.4763 333.63 44.6698C332.773 45.1812 332.489 46.2869 333.001 47.1507C333.513 48.0077 334.619 48.291 335.484 47.7796C335.809 47.5861 336.051 47.3097 336.196 46.9918L339.474 47.13C339.509 47.2337 339.557 47.3304 339.619 47.4272C340.131 48.2841 341.237 48.5674 342.102 48.056C342.959 47.5446 343.243 46.4389 342.731 45.5751C342.213 44.7182 341.106 44.4418 340.249 44.9462Z" fill="white"/>
<g filter="url(#filter4_d_1563_12803)">
<path d="M358.661 110.149C358.781 105.335 354.973 101.336 350.155 101.216C345.338 101.097 341.336 104.902 341.216 109.716C341.097 114.53 344.905 118.529 349.722 118.649C354.54 118.768 358.542 114.962 358.661 110.149Z" fill="#FFC348"/>
<path d="M356.142 112.282L347.654 116.16L346.729 114.137C346.049 112.649 346.706 110.9 348.189 110.221L351.291 108.801C352.78 108.121 354.53 108.778 355.21 110.259L356.142 112.282Z" fill="white"/>
<path d="M350.895 105.77C351.491 107.075 350.918 108.617 349.611 109.213C348.305 109.808 346.761 109.236 346.165 107.93C345.569 106.625 346.142 105.082 347.449 104.487C348.748 103.891 350.291 104.464 350.895 105.77Z" fill="white"/>
</g>
<g filter="url(#filter5_d_1563_12803)">
<path d="M187.341 72.377C185.931 74.9116 182.735 75.8248 180.199 74.416C177.663 73.0071 176.749 69.8142 178.159 67.2797C179.569 64.7452 182.764 63.8319 185.3 65.2407C187.829 66.6496 188.743 69.8425 187.341 72.377Z" fill="#FFC348"/>
<path d="M183.827 73.6796L178.91 70.9539L179.562 69.7858C180.037 68.9291 181.121 68.6176 181.985 69.092L183.784 70.0902C184.642 70.5646 184.953 71.6477 184.479 72.5115L183.827 73.6796Z" fill="white"/>
<path d="M185.11 68.8089C184.692 69.5665 183.736 69.8355 182.978 69.4178C182.22 69.0001 181.951 68.0443 182.369 67.2868C182.787 66.5293 183.743 66.2603 184.501 66.678C185.252 67.1028 185.528 68.0585 185.11 68.8089Z" fill="white"/>
</g>
<g filter="url(#filter6_d_1563_12803)">
<path d="M122.926 77.7522C122.591 76.4428 121.283 75.655 119.996 75.9956L119.787 76.0489L119.735 75.836C119.4 74.5265 118.092 73.7387 116.805 74.0794C115.517 74.42 114.743 75.7508 115.078 77.0602L115.13 77.2732L116.334 82L120.98 80.7757L121.189 80.7225C122.476 80.3925 123.251 79.0617 122.926 77.7522Z" fill="#FF4D41"/>
</g>
<g filter="url(#filter7_d_1563_12803)">
<path d="M65.4609 189.719C64.6649 189.3 63.6809 189.6 63.2607 190.397L63.1913 190.525L63.0629 190.456C62.2669 190.036 61.2829 190.337 60.8627 191.133C60.4425 191.93 60.7426 192.914 61.5386 193.333L61.6671 193.403L64.5379 194.92L66.0574 192.048L66.1268 191.919C66.5522 191.128 66.2521 190.144 65.4609 189.719Z" fill="#FF4D41"/>
</g>
<g filter="url(#filter8_d_1563_12803)">
<path d="M39.2003 206.511C37.677 212.826 31.322 216.706 25.0095 215.184C18.69 213.662 14.8075 207.311 16.3307 201.003C17.854 194.688 24.209 190.808 30.5215 192.331C36.8411 193.853 40.7235 200.196 39.2003 206.511Z" fill="#5ACAA9"/>
<path d="M25.3885 201.49L23.3086 200.989L21.8024 207.231L23.8823 207.732L25.3885 201.49Z" fill="white"/>
<path d="M26.6457 202.192C26.6457 202.192 27.9918 200.826 28.7924 200.338C29.4867 199.913 29.9117 198.653 30.0038 198.334C30.018 198.291 30.0605 198.27 30.103 198.277C30.7123 198.426 31.0807 199.035 30.939 199.644L30.3439 202.122L32.5189 202.646C33.2345 202.815 33.6737 203.538 33.5037 204.253L32.4906 208.444C32.3206 209.159 31.5979 209.598 30.8823 209.428L25.2358 208.069C24.9383 207.998 24.7611 207.7 24.832 207.403L25.9939 202.596C26.0506 202.306 26.3481 202.122 26.6457 202.192Z" fill="white"/>
</g>
<g filter="url(#filter9_d_1563_12803)">
<path d="M50.1292 84.2812L27.9914 95.4028C27.1978 95.7947 26.2361 95.4775 25.8346 94.6937L19.1681 81.4448C18.7759 80.6518 19.0934 79.6907 19.8777 79.2895L42.0247 68.1679C42.8184 67.7761 43.7801 68.0933 44.1816 68.877L50.8481 82.1259C51.2403 82.9097 50.9135 83.88 50.1292 84.2812Z" fill="#FF4D41"/>
<path d="M43.3398 83.7868L46.449 93.7981L48.7739 81.0624L43.3398 83.7868Z" fill="#FF4D41"/>
<path d="M37.5837 75.4083C35.7537 74.8019 33.7742 75.8002 33.1673 77.6289L33.0646 77.9275L32.7659 77.8249C30.9358 77.2184 28.9564 78.2167 28.3495 80.0455C27.7426 81.8742 28.7417 83.8522 30.5717 84.4586L30.8705 84.5613L37.4997 86.7539L39.6938 80.1294L39.7965 79.8309C40.4128 77.9928 39.4137 76.0148 37.5837 75.4083Z" fill="white"/>
</g>
<g clip-path="url(#clip1_1563_12803)" filter="url(#filter10_d_1563_12803)">
<path d="M98.3597 217.839C97.4581 216.829 96.7085 216.248 95.9549 215.82C95.1724 215.364 94.2998 215.084 93.3979 215C92.4978 214.899 91.5863 214.996 90.7274 215.284C89.9025 215.55 89.051 215.967 87.9634 216.773C86.8735 217.58 86.5285 217.842 83.8528 220.02C81.177 222.198 80.8506 222.483 79.8388 223.386C78.829 224.287 78.2485 225.037 77.82 225.791C77.3639 226.573 77.0841 227.446 76.9999 228.348C76.8992 229.248 76.9959 230.159 77.2836 231.018C77.5504 231.843 77.9669 232.695 78.7729 233.782C79.5802 234.872 79.8419 235.217 82.0199 237.893C84.1981 240.569 84.4828 240.895 85.3862 241.907C86.2876 242.916 87.0371 243.497 87.7909 243.925C88.5732 244.381 89.446 244.661 90.3477 244.745C91.2478 244.846 92.1592 244.749 93.0179 244.461C93.8429 244.195 94.6946 243.778 95.7824 242.973C96.8724 242.165 97.2171 241.903 99.8929 239.725C102.569 237.547 102.895 237.263 103.907 236.359C104.917 235.458 105.497 234.708 105.926 233.955C106.833 232.366 107.027 230.468 106.462 228.728C106.195 227.902 105.779 227.051 104.973 225.963C104.165 224.873 103.904 224.528 101.726 221.853C99.5474 219.177 99.2628 218.851 98.3597 217.839ZM103.134 227.326C103.872 228.322 104.136 228.975 104.284 229.432C104.652 230.561 104.525 231.793 103.936 232.824C103.698 233.241 103.307 233.826 102.382 234.652C101.382 235.545 101.079 235.809 98.4478 237.95C95.8167 240.092 95.4971 240.336 94.4196 241.134C93.4235 241.872 92.7711 242.136 92.314 242.284C91.7575 242.474 91.1654 242.537 90.5812 242.469C89.9952 242.417 89.4284 242.235 88.922 241.936C88.5045 241.699 87.9193 241.308 87.0936 240.383C86.2006 239.382 85.9369 239.079 83.7954 236.448C81.6538 233.817 81.4103 233.497 80.6119 232.42C79.8739 231.423 79.6096 230.771 79.4619 230.314C79.2715 229.757 79.2084 229.165 79.2768 228.581C79.3282 227.995 79.5104 227.428 79.8099 226.922C80.0471 226.504 80.4382 225.919 81.3632 225.093C82.3635 224.2 82.667 223.937 85.2978 221.795L85.2976 221.795C87.9284 219.654 88.2483 219.41 89.326 218.612C90.3223 217.874 90.9745 217.61 91.4316 217.462C91.988 217.272 92.5802 217.208 93.1643 217.277C93.7503 217.328 94.3172 217.51 94.8235 217.81C95.241 218.047 95.8262 218.438 96.652 219.363C97.545 220.364 97.8087 220.667 99.9502 223.298C102.092 225.929 102.335 226.248 103.134 227.326Z" fill="url(#paint8_linear_1563_12803)"/>
<path d="M87.7547 224.813C84.9605 227.088 84.5393 231.197 86.8138 233.991C89.0882 236.785 93.1973 237.207 95.9915 234.932C98.7859 232.658 99.2073 228.549 96.9328 225.754C94.6583 222.96 90.5491 222.539 87.7547 224.813ZM94.5465 233.157C92.7327 234.633 90.0653 234.36 88.589 232.546C87.1127 230.732 87.386 228.065 89.1999 226.588C91.0139 225.112 93.6811 225.386 95.1574 227.199C96.6339 229.013 96.3604 231.681 94.5465 233.157Z" fill="url(#paint9_linear_1563_12803)"/>
<path d="M94.0342 219.37C94.5657 220.023 94.4673 220.983 93.8143 221.515C93.1612 222.046 92.201 221.948 91.6695 221.295C91.1379 220.642 91.2364 219.681 91.8895 219.15C92.5424 218.618 93.5026 218.717 94.0342 219.37Z" fill="url(#paint10_linear_1563_12803)"/>
</g>
<defs>
<filter id="filter0_d_1563_12803" x="204" y="178" width="115.156" height="114.553" filterUnits="userSpaceOnUse" color-interpolation-filters="sRGB">
<feFlood flood-opacity="0" result="BackgroundImageFix"/>
<feColorMatrix in="SourceAlpha" type="matrix" values="0 0 0 0 0 0 0 0 0 0 0 0 0 0 0 0 0 0 127 0" result="hardAlpha"/>
<feOffset dy="17"/>
<feGaussianBlur stdDeviation="25"/>
<feColorMatrix type="matrix" values="0 0 0 0 0.121569 0 0 0 0 0.552941 0 0 0 0 0.87451 0 0 0 0.25 0"/>
<feBlend mode="normal" in2="BackgroundImageFix" result="effect1_dropShadow_1563_12803"/>
<feBlend mode="normal" in="SourceGraphic" in2="effect1_dropShadow_1563_12803" result="shape"/>
</filter>
<filter id="filter1_d_1563_12803" x="221.715" y="34.854" width="134.07" height="128.199" filterUnits="userSpaceOnUse" color-interpolation-filters="sRGB">
<feFlood flood-opacity="0" result="BackgroundImageFix"/>
<feColorMatrix in="SourceAlpha" type="matrix" values="0 0 0 0 0 0 0 0 0 0 0 0 0 0 0 0 0 0 127 0" result="hardAlpha"/>
<feOffset dy="17"/>
<feGaussianBlur stdDeviation="25"/>
<feColorMatrix type="matrix" values="0 0 0 0 1 0 0 0 0 0.301961 0 0 0 0 0.254902 0 0 0 0.25 0"/>
<feBlend mode="normal" in2="BackgroundImageFix" result="effect1_dropShadow_1563_12803"/>
<feBlend mode="normal" in="SourceGraphic" in2="effect1_dropShadow_1563_12803" result="shape"/>
</filter>
<filter id="filter2_d_1563_12803" x="287.215" y="165.682" width="94.0116" height="94.0101" filterUnits="userSpaceOnUse" color-interpolation-filters="sRGB">
<feFlood flood-opacity="0" result="BackgroundImageFix"/>
<feColorMatrix in="SourceAlpha" type="matrix" values="0 0 0 0 0 0 0 0 0 0 0 0 0 0 0 0 0 0 127 0" result="hardAlpha"/>
<feOffset dy="10.4669"/>
<feGaussianBlur stdDeviation="15.3925"/>
<feColorMatrix type="matrix" values="0 0 0 0 0.67451 0 0 0 0 0.109804 0 0 0 0 0.662745 0 0 0 0.25 0"/>
<feBlend mode="normal" in2="BackgroundImageFix" result="effect1_dropShadow_1563_12803"/>
<feBlend mode="normal" in="SourceGraphic" in2="effect1_dropShadow_1563_12803" result="shape"/>
</filter>
<filter id="filter3_d_1563_12803" x="276.023" y="0.0228271" width="122.941" height="122.922" filterUnits="userSpaceOnUse" color-interpolation-filters="sRGB">
<feFlood flood-opacity="0" result="BackgroundImageFix"/>
<feColorMatrix in="SourceAlpha" type="matrix" values="0 0 0 0 0 0 0 0 0 0 0 0 0 0 0 0 0 0 127 0" result="hardAlpha"/>
<feOffset dy="17"/>
<feGaussianBlur stdDeviation="25"/>
<feColorMatrix type="matrix" values="0 0 0 0 1 0 0 0 0 0.627451 0 0 0 0 0.192157 0 0 0 0.25 0"/>
<feBlend mode="normal" in2="BackgroundImageFix" result="effect1_dropShadow_1563_12803"/>
<feBlend mode="normal" in="SourceGraphic" in2="effect1_dropShadow_1563_12803" result="shape"/>
</filter>
<filter id="filter4_d_1563_12803" x="291.215" y="68.2134" width="117.449" height="117.438" filterUnits="userSpaceOnUse" color-interpolation-filters="sRGB">
<feFlood flood-opacity="0" result="BackgroundImageFix"/>
<feColorMatrix in="SourceAlpha" type="matrix" values="0 0 0 0 0 0 0 0 0 0 0 0 0 0 0 0 0 0 127 0" result="hardAlpha"/>
<feOffset dy="17"/>
<feGaussianBlur stdDeviation="25"/>
<feColorMatrix type="matrix" values="0 0 0 0 1 0 0 0 0 0.764706 0 0 0 0 0.282353 0 0 0 0.25 0"/>
<feBlend mode="normal" in2="BackgroundImageFix" result="effect1_dropShadow_1563_12803"/>
<feBlend mode="normal" in="SourceGraphic" in2="effect1_dropShadow_1563_12803" result="shape"/>
</filter>
<filter id="filter5_d_1563_12803" x="127.496" y="31.5786" width="110.504" height="110.5" filterUnits="userSpaceOnUse" color-interpolation-filters="sRGB">
<feFlood flood-opacity="0" result="BackgroundImageFix"/>
<feColorMatrix in="SourceAlpha" type="matrix" values="0 0 0 0 0 0 0 0 0 0 0 0 0 0 0 0 0 0 127 0" result="hardAlpha"/>
<feOffset dy="17"/>
<feGaussianBlur stdDeviation="25"/>
<feColorMatrix type="matrix" values="0 0 0 0 1 0 0 0 0 0.764706 0 0 0 0 0.282353 0 0 0 0.25 0"/>
<feBlend mode="normal" in2="BackgroundImageFix" result="effect1_dropShadow_1563_12803"/>
<feBlend mode="normal" in="SourceGraphic" in2="effect1_dropShadow_1563_12803" result="shape"/>
</filter>
<filter id="filter6_d_1563_12803" x="65" y="41" width="108" height="108" filterUnits="userSpaceOnUse" color-interpolation-filters="sRGB">
<feFlood flood-opacity="0" result="BackgroundImageFix"/>
<feColorMatrix in="SourceAlpha" type="matrix" values="0 0 0 0 0 0 0 0 0 0 0 0 0 0 0 0 0 0 127 0" result="hardAlpha"/>
<feOffset dy="17"/>
<feGaussianBlur stdDeviation="25"/>
<feColorMatrix type="matrix" values="0 0 0 0 1 0 0 0 0 0.301961 0 0 0 0 0.254902 0 0 0 0.25 0"/>
<feBlend mode="normal" in2="BackgroundImageFix" result="effect1_dropShadow_1563_12803"/>
<feBlend mode="normal" in="SourceGraphic" in2="effect1_dropShadow_1563_12803" result="shape"/>
</filter>
<filter id="filter7_d_1563_12803" x="10.6719" y="156.53" width="105.648" height="105.39" filterUnits="userSpaceOnUse" color-interpolation-filters="sRGB">
<feFlood flood-opacity="0" result="BackgroundImageFix"/>
<feColorMatrix in="SourceAlpha" type="matrix" values="0 0 0 0 0 0 0 0 0 0 0 0 0 0 0 0 0 0 127 0" result="hardAlpha"/>
<feOffset dy="17"/>
<feGaussianBlur stdDeviation="25"/>
<feColorMatrix type="matrix" values="0 0 0 0 1 0 0 0 0 0.301961 0 0 0 0 0.254902 0 0 0 0.25 0"/>
<feBlend mode="normal" in2="BackgroundImageFix" result="effect1_dropShadow_1563_12803"/>
<feBlend mode="normal" in="SourceGraphic" in2="effect1_dropShadow_1563_12803" result="shape"/>
</filter>
<filter id="filter8_d_1563_12803" x="-34" y="159" width="123.531" height="123.514" filterUnits="userSpaceOnUse" color-interpolation-filters="sRGB">
<feFlood flood-opacity="0" result="BackgroundImageFix"/>
<feColorMatrix in="SourceAlpha" type="matrix" values="0 0 0 0 0 0 0 0 0 0 0 0 0 0 0 0 0 0 127 0" result="hardAlpha"/>
<feOffset dy="17"/>
<feGaussianBlur stdDeviation="25"/>
<feColorMatrix type="matrix" values="0 0 0 0 0.352941 0 0 0 0 0.792157 0 0 0 0 0.662745 0 0 0 0.25 0"/>
<feBlend mode="normal" in2="BackgroundImageFix" result="effect1_dropShadow_1563_12803"/>
<feBlend mode="normal" in="SourceGraphic" in2="effect1_dropShadow_1563_12803" result="shape"/>
</filter>
<filter id="filter9_d_1563_12803" x="-31" y="35" width="132.016" height="127.571" filterUnits="userSpaceOnUse" color-interpolation-filters="sRGB">
<feFlood flood-opacity="0" result="BackgroundImageFix"/>
<feColorMatrix in="SourceAlpha" type="matrix" values="0 0 0 0 0 0 0 0 0 0 0 0 0 0 0 0 0 0 127 0" result="hardAlpha"/>
<feOffset dy="17"/>
<feGaussianBlur stdDeviation="25"/>
<feColorMatrix type="matrix" values="0 0 0 0 1 0 0 0 0 0.301961 0 0 0 0 0.254902 0 0 0 0.25 0"/>
<feBlend mode="normal" in2="BackgroundImageFix" result="effect1_dropShadow_1563_12803"/>
<feBlend mode="normal" in="SourceGraphic" in2="effect1_dropShadow_1563_12803" result="shape"/>
</filter>
<filter id="filter10_d_1563_12803" x="51.7036" y="197.284" width="80.339" height="80.3385" filterUnits="userSpaceOnUse" color-interpolation-filters="sRGB">
<feFlood flood-opacity="0" result="BackgroundImageFix"/>
<feColorMatrix in="SourceAlpha" type="matrix" values="0 0 0 0 0 0 0 0 0 0 0 0 0 0 0 0 0 0 127 0" result="hardAlpha"/>
<feOffset dy="7.58079"/>
<feGaussianBlur stdDeviation="11.1482"/>
<feColorMatrix type="matrix" values="0 0 0 0 1 0 0 0 0 0.301961 0 0 0 0 0.254902 0 0 0 0.25 0"/>
<feBlend mode="normal" in2="BackgroundImageFix" result="effect1_dropShadow_1563_12803"/>
<feBlend mode="normal" in="SourceGraphic" in2="effect1_dropShadow_1563_12803" result="shape"/>
</filter>
<radialGradient id="paint0_radial_1563_12803" cx="0" cy="0" r="1" gradientUnits="userSpaceOnUse" gradientTransform="translate(323.302 202.916) rotate(48.0803) scale(25.3337)">
<stop stop-color="#FAE100"/>
<stop offset="0.0544" stop-color="#FADC04"/>
<stop offset="0.1167" stop-color="#FBCE0E"/>
<stop offset="0.1829" stop-color="#FCB720"/>
<stop offset="0.2514" stop-color="#FE9838"/>
<stop offset="0.3054" stop-color="#FF7950"/>
<stop offset="0.4922" stop-color="#FF1C74"/>
<stop offset="1" stop-color="#6C1CD1"/>
</radialGradient>
<linearGradient id="paint1_linear_1563_12803" x1="333.55" y1="199.224" x2="323.839" y2="155.642" gradientUnits="userSpaceOnUse">
<stop stop-color="#A1B5D8" stop-opacity="0"/>
<stop offset="0.3094" stop-color="#90A2BD" stop-opacity="0.309804"/>
<stop offset="0.7554" stop-color="#7C8B9C" stop-opacity="0.756863"/>
<stop offset="1" stop-color="#748290"/>
</linearGradient>
<linearGradient id="paint2_linear_1563_12803" x1="327.677" y1="208.094" x2="325.012" y2="210.486" gradientUnits="userSpaceOnUse">
<stop stop-color="#FAE100" stop-opacity="0"/>
<stop offset="0.3068" stop-color="#FCA800" stop-opacity="0.305882"/>
<stop offset="0.6275" stop-color="#FE7300" stop-opacity="0.627451"/>
<stop offset="0.8685" stop-color="#FF5200" stop-opacity="0.866667"/>
<stop offset="1" stop-color="#FF4500"/>
</linearGradient>
<linearGradient id="paint3_linear_1563_12803" x1="334.341" y1="200.353" x2="334.773" y2="192.324" gradientUnits="userSpaceOnUse">
<stop stop-color="#833AB4" stop-opacity="0"/>
<stop offset="1" stop-color="#833AB4"/>
</linearGradient>
<linearGradient id="paint4_linear_1563_12803" x1="329.977" y1="211.752" x2="338.035" y2="200.703" gradientUnits="userSpaceOnUse">
<stop stop-color="#833AB4" stop-opacity="0"/>
<stop offset="1" stop-color="#833AB4"/>
</linearGradient>
<linearGradient id="paint5_linear_1563_12803" x1="333.811" y1="209.757" x2="334.677" y2="193.663" gradientUnits="userSpaceOnUse">
<stop stop-color="#833AB4" stop-opacity="0"/>
<stop offset="1" stop-color="#833AB4"/>
</linearGradient>
<linearGradient id="paint6_linear_1563_12803" x1="339.51" y1="205.779" x2="339.796" y2="200.457" gradientUnits="userSpaceOnUse">
<stop stop-color="#833AB4" stop-opacity="0"/>
<stop offset="1" stop-color="#833AB4"/>
</linearGradient>
<linearGradient id="paint7_linear_1563_12803" x1="340.634" y1="202.588" x2="327.512" y2="201.881" gradientUnits="userSpaceOnUse">
<stop stop-color="#833AB4"/>
<stop offset="0.0922" stop-color="#9C3495"/>
<stop offset="0.2927" stop-color="#DC2546"/>
<stop offset="0.392" stop-color="#FD1D1D"/>
<stop offset="0.5589" stop-color="#FC6831"/>
<stop offset="0.6887" stop-color="#FC9B40"/>
<stop offset="0.7521" stop-color="#FCAF45"/>
<stop offset="0.7806" stop-color="#FDB750"/>
<stop offset="0.8656" stop-color="#FECB6A"/>
<stop offset="0.9415" stop-color="#FFD87A"/>
<stop offset="1" stop-color="#FFDC80"/>
</linearGradient>
<linearGradient id="paint8_linear_1563_12803" x1="90.3476" y1="244.746" x2="93.3978" y2="215" gradientUnits="userSpaceOnUse">
<stop stop-color="#FFD600"/>
<stop offset="0.5" stop-color="#FF0100"/>
<stop offset="1" stop-color="#D800B9"/>
</linearGradient>
<linearGradient id="paint9_linear_1563_12803" x1="91.2078" y1="236.362" x2="92.5387" y2="223.383" gradientUnits="userSpaceOnUse">
<stop stop-color="#FF6400"/>
<stop offset="0.5" stop-color="#FF0100"/>
<stop offset="1" stop-color="#FD0056"/>
</linearGradient>
<linearGradient id="paint10_linear_1563_12803" x1="92.6963" y1="221.849" x2="93.0073" y2="218.816" gradientUnits="userSpaceOnUse">
<stop stop-color="#F30072"/>
<stop offset="1" stop-color="#E50097"/>
</linearGradient>
<clipPath id="clip0_1563_12803">
<rect width="22.9717" height="22.9717" fill="white" transform="translate(335.094 186) rotate(48.0803)"/>
</clipPath>
<clipPath id="clip1_1563_12803">
<rect width="25.4085" height="25.4085" fill="white" transform="translate(74 228.04) rotate(-39.1453)"/>
</clipPath>
</defs>
</svg>
