<svg width="20" height="20" viewBox="0 0 20 20" fill="none" xmlns="http://www.w3.org/2000/svg">
<path d="M7.6197 17.3184V14.7627C7.61968 14.1151 8.14631 13.5889 8.79861 13.5848H11.1938C11.849 13.5848 12.3801 14.1122 12.3801 14.7627V17.311C12.3801 17.8727 12.8366 18.3292 13.4024 18.3333H15.0364C15.7996 18.3353 16.5322 18.0357 17.0726 17.5006C17.6129 16.9655 17.9166 16.239 17.9166 15.4813V8.22153C17.9166 7.60948 17.6433 7.02892 17.1704 6.63624L11.6191 2.22855C10.6487 1.45759 9.26273 1.4825 8.32108 2.28781L2.8891 6.63624C2.39387 7.01734 2.09788 7.59963 2.08325 8.22153V15.4739C2.08325 17.0531 3.37274 18.3333 4.9634 18.3333H6.56016C6.83256 18.3353 7.09449 18.2292 7.28781 18.0387C7.48113 17.8481 7.58986 17.5889 7.58985 17.3184H7.6197Z" fill="#11CDEF"/>
</svg>
