<svg width="20" height="20" viewBox="0 0 20 20" fill="none" xmlns="http://www.w3.org/2000/svg">
<path d="M9.95752 12.1166C7.08253 12.1166 4.65674 12.5864 4.65674 14.3995C4.65674 16.2134 7.0982 16.6667 9.95752 16.6667C12.8325 16.6667 15.2583 16.1969 15.2583 14.3838C15.2583 12.5699 12.8168 12.1166 9.95752 12.1166Z" fill="#07132C"/>
<path opacity="0.4" d="M9.95745 10.3892C11.9042 10.3892 13.4652 8.81923 13.4652 6.86127C13.4652 4.90256 11.9042 3.33334 9.95745 3.33334C8.01069 3.33334 6.44971 4.90256 6.44971 6.86127C6.44971 8.81923 8.01069 10.3892 9.95745 10.3892Z" fill="#07132C"/>
<path opacity="0.4" d="M17.5731 7.68272C18.0767 5.7015 16.6001 3.92215 14.7197 3.92215C14.5153 3.92215 14.3198 3.94466 14.1287 3.98294C14.1034 3.98894 14.075 4.0017 14.0601 4.02421C14.0429 4.05273 14.0556 4.091 14.0743 4.11577C14.6391 4.91276 14.9637 5.88311 14.9637 6.92475C14.9637 7.92287 14.666 8.85345 14.1437 9.62567C14.0899 9.70522 14.1377 9.81254 14.2325 9.82905C14.3638 9.85231 14.4981 9.86432 14.6354 9.86807C16.0046 9.90409 17.2336 9.0178 17.5731 7.68272Z" fill="#07132C"/>
<path d="M19.0076 12.3475C18.7569 11.8101 18.1517 11.4417 17.2317 11.2608C16.7974 11.1542 15.6222 11.0041 14.5291 11.0244C14.5127 11.0267 14.5037 11.0379 14.5022 11.0454C14.5 11.0559 14.5045 11.0739 14.5261 11.0852C15.0313 11.3366 16.984 12.43 16.7385 14.7362C16.728 14.836 16.8079 14.9223 16.9071 14.9073C17.3877 14.8383 18.6241 14.5711 19.0076 13.7388C19.2195 13.2991 19.2195 12.788 19.0076 12.3475Z" fill="#07132C"/>
<path opacity="0.4" d="M5.87057 3.98318C5.6803 3.94416 5.48405 3.92239 5.2796 3.92239C3.39926 3.92239 1.92259 5.70174 2.427 7.68297C2.76576 9.01804 3.9947 9.90434 5.36392 9.86832C5.50122 9.86456 5.63627 9.85181 5.76685 9.82929C5.86162 9.81278 5.90937 9.70547 5.85565 9.62592C5.33333 8.85294 5.03561 7.92311 5.03561 6.925C5.03561 5.8826 5.36094 4.91226 5.92579 4.11601C5.9437 4.09125 5.95713 4.05297 5.93922 4.02446C5.92429 4.00119 5.89669 3.98919 5.87057 3.98318Z" fill="#07132C"/>
<path d="M2.76788 11.2606C1.84786 11.4414 1.24346 11.8099 0.992746 12.3472C0.780087 12.7877 0.780087 13.2988 0.992746 13.7393C1.37628 14.5708 2.61268 14.8388 3.09321 14.9071C3.19245 14.9221 3.27155 14.8365 3.2611 14.7359C3.01561 12.4305 4.96833 11.3371 5.47424 11.0857C5.49513 11.0737 5.49961 11.0564 5.49737 11.0452C5.49588 11.0377 5.48767 11.0264 5.47125 11.0249C4.37737 11.0039 3.2029 11.154 2.76788 11.2606Z" fill="#07132C"/>
</svg>
