<svg width="40" height="40" viewBox="0 0 40 40" fill="none" xmlns="http://www.w3.org/2000/svg">
<rect width="40" height="40" rx="7" fill="white"/>
<path d="M26.4747 19.7044C25.8659 18.9936 25.5893 18.3775 25.5893 17.331V16.9751C25.5893 15.6113 25.2754 14.7325 24.593 13.8538C23.5411 12.4892 21.7704 11.6667 20.0369 11.6667H19.9632C18.2662 11.6667 16.551 12.4514 15.4809 13.7607C14.7612 14.657 14.4109 15.5735 14.4109 16.9751V17.331C14.4109 18.3775 14.1524 18.9936 13.5255 19.7044C13.0642 20.2281 12.9167 20.9012 12.9167 21.6297C12.9167 22.3591 13.1561 23.0498 13.6365 23.6113C14.2634 24.2844 15.1488 24.7141 16.0532 24.7888C17.3626 24.9382 18.672 24.9944 20.0005 24.9944C21.3281 24.9944 22.6375 24.9004 23.9478 24.7888C24.8514 24.7141 25.7367 24.2844 26.3637 23.6113C26.8432 23.0498 27.0834 22.3591 27.0834 21.6297C27.0834 20.9012 26.936 20.2281 26.4747 19.7044Z" fill="#07132C"/>
<path opacity="0.4" d="M21.6742 26.0236C21.2576 25.9347 18.7191 25.9347 18.3025 26.0236C17.9464 26.1059 17.5613 26.2972 17.5613 26.7169C17.582 27.1172 17.8164 27.4706 18.141 27.6946L18.1402 27.6955C18.5601 28.0228 19.0529 28.2309 19.5689 28.3056C19.8438 28.3434 20.1238 28.3417 20.4087 28.3056C20.9238 28.2309 21.4166 28.0228 21.8365 27.6955L21.8357 27.6946C22.1604 27.4706 22.3948 27.1172 22.4155 26.7169C22.4155 26.2972 22.0303 26.1059 21.6742 26.0236Z" fill="#07132C"/>
<circle cx="31" cy="10" r="3" fill="#FB6340"/>
</svg>
