<svg width="20" height="20" viewBox="0 0 20 20" fill="none" xmlns="http://www.w3.org/2000/svg">
<path opacity="0.4" d="M16.6604 15.7944H11.9152C11.4522 15.7944 11.0757 16.1769 11.0757 16.6472C11.0757 17.1184 11.4522 17.5 11.9152 17.5H16.6604C17.1234 17.5 17.5 17.1184 17.5 16.6472C17.5 16.1769 17.1234 15.7944 16.6604 15.7944Z" fill="#07132C"/>
<path d="M8.59085 5.75324L13.0874 9.38665C13.1959 9.47354 13.2144 9.633 13.1297 9.74408L7.79895 16.6902C7.46385 17.1193 6.97001 17.3621 6.4409 17.371L3.5308 17.4068C3.37559 17.4086 3.23979 17.3011 3.20452 17.1471L2.54313 14.2715C2.42849 13.743 2.54313 13.1965 2.87823 12.7755L8.23547 5.79624C8.32189 5.68426 8.4815 5.66456 8.59085 5.75324Z" fill="#07132C"/>
<path opacity="0.4" d="M15.1003 7.2212L14.2335 8.30334C14.1462 8.41352 13.9892 8.43144 13.8807 8.34365C12.8269 7.49084 10.1285 5.30237 9.37977 4.69591C9.27042 4.60633 9.25543 4.44687 9.34361 4.33579L10.1796 3.29755C10.938 2.32111 12.2608 2.23153 13.3278 3.08255L14.5536 4.05899C15.0562 4.45314 15.3913 4.97271 15.506 5.51916C15.6383 6.12025 15.4972 6.71059 15.1003 7.2212Z" fill="#07132C"/>
</svg>
