<svg width="15" height="20" viewBox="0 0 15 20" fill="none" xmlns="http://www.w3.org/2000/svg">
<g clip-path="url(#clip0_4896_5501)">
<path d="M7.89497 0C4.77704 0 2.75755 1.27746 1.17204 3.5557C0.884425 3.96898 0.973097 4.53562 1.37431 4.83984L3.05939 6.11754C3.46458 6.42477 4.0411 6.35293 4.35833 5.95551C5.33681 4.72969 6.06263 4.02391 7.59103 4.02391C8.79275 4.02391 10.2792 4.7973 10.2792 5.96262C10.2792 6.84355 9.55192 7.29598 8.36536 7.96121C6.98165 8.73699 5.15056 9.70246 5.15056 12.1177V12.5C5.15056 13.0178 5.57028 13.4375 6.08806 13.4375H8.91896C9.43673 13.4375 9.85646 13.0178 9.85646 12.5V12.2745C9.85646 10.6003 14.7497 10.5305 14.7497 6C14.7498 2.58812 11.2106 0 7.89497 0Z" fill="#07132C"/>
<path opacity="0.4" d="M4.79688 17.2943C4.79688 15.8022 6.01074 14.5884 7.50277 14.5884C8.9948 14.5884 10.2087 15.8022 10.2087 17.2942C10.2087 18.7863 8.9948 20.0001 7.50277 20.0001C6.01074 20.0001 4.79688 18.7863 4.79688 17.2943Z" fill="#07132C"/>
</g>
<defs>
<clipPath id="clip0_4896_5501">
<rect width="15" height="20" fill="white"/>
</clipPath>
</defs>
</svg>
