<svg width="37" height="18" viewBox="0 0 37 18" fill="none" xmlns="http://www.w3.org/2000/svg">
<path fill-rule="evenodd" clip-rule="evenodd" d="M0.666992 9.0126C0.666992 4.62268 4.17533 0.666748 9.01699 0.666748C13.7503 0.666748 17.3337 4.54757 17.3337 8.98756C17.3337 14.137 13.1337 17.3334 9.00033 17.3334C7.63366 17.3334 6.11699 16.9662 4.90033 16.2485C4.47533 15.9897 4.11699 15.7978 3.65866 15.948L1.97533 16.4488C1.55033 16.5823 1.16699 16.2485 1.29199 15.7978L1.85033 13.9283C1.94199 13.6696 1.92533 13.3942 1.79199 13.1772C1.07533 11.8585 0.666992 10.4147 0.666992 9.0126ZM7.91712 9.01259C7.91712 9.60515 8.39212 10.0809 8.98379 10.0892C9.57545 10.0892 10.0505 9.60515 10.0505 9.02094C10.0505 8.42838 9.57545 7.95267 8.98379 7.95267C8.40045 7.94432 7.91712 8.42838 7.91712 9.01259ZM11.7589 9.02094C11.7589 9.60515 12.2339 10.0892 12.8256 10.0892C13.4172 10.0892 13.8922 9.60515 13.8922 9.02094C13.8922 8.42838 13.4172 7.95267 12.8256 7.95267C12.2339 7.95267 11.7589 8.42838 11.7589 9.02094ZM5.14202 10.0892C4.55869 10.0892 4.07535 9.60515 4.07535 9.02094C4.07535 8.42838 4.55035 7.95267 5.14202 7.95267C5.73369 7.95267 6.20869 8.42838 6.20869 9.02094C6.20869 9.60515 5.73369 10.0809 5.14202 10.0892Z" fill="#2DCE89"/>
<rect x="3.00024" y="7" width="11" height="4" fill="#2DCE89"/>
<path d="M12.4289 6.42847L7.71463 11.1428L5.57178 8.9999" stroke="#FEFEFF" stroke-linecap="round" stroke-linejoin="round"/>
</svg>
