<svg width="187" height="40" viewBox="0 0 187 40" fill="none" xmlns="http://www.w3.org/2000/svg">
<rect width="40" height="40" rx="20" fill="#3B5999"/>
<path d="M23.5948 21.425L23.9776 18.9094H21.544V17.2687C21.544 16.5578 21.8722 15.9016 22.9659 15.9016H24.087V13.7414C24.087 13.7414 23.0753 13.55 22.1183 13.55C20.1222 13.55 18.8097 14.7805 18.8097 16.968V18.9094H16.5675V21.425H18.8097V27.55H21.544V21.425H23.5948Z" fill="white"/>
<rect x="49" width="40" height="40" rx="20" fill="#55ACEE"/>
<path d="M74.8927 18.5063C75.4396 18.0962 75.9317 17.604 76.3146 17.0298C75.8224 17.2485 75.2481 17.4126 74.6739 17.4673C75.2755 17.1118 75.713 16.5649 75.9317 15.8813C75.3849 16.2095 74.756 16.4556 74.1271 16.5923C73.5802 16.0181 72.8419 15.6899 72.0216 15.6899C70.4356 15.6899 69.1505 16.9751 69.1505 18.561C69.1505 18.7798 69.1778 18.9985 69.2325 19.2173C66.8536 19.0806 64.7208 17.9321 63.2989 16.2095C63.0528 16.6196 62.9161 17.1118 62.9161 17.6587C62.9161 18.6431 63.4083 19.5181 64.2013 20.0376C63.7364 20.0103 63.2716 19.9009 62.8888 19.6821V19.7095C62.8888 21.104 63.8731 22.2524 65.1856 22.5259C64.9669 22.5806 64.6935 22.6353 64.4474 22.6353C64.256 22.6353 64.0919 22.6079 63.9005 22.5806C64.256 23.729 65.3224 24.5493 66.5802 24.5767C65.5958 25.3423 64.3653 25.8071 63.0255 25.8071C62.7794 25.8071 62.5606 25.7798 62.3419 25.7524C63.5997 26.5728 65.1036 27.0376 66.7442 27.0376C72.0216 27.0376 74.8927 22.6899 74.8927 18.8892C74.8927 18.7524 74.8927 18.6431 74.8927 18.5063Z" fill="white"/>
<rect x="98" width="40" height="40" rx="20" fill="#0077B5"/>
<path d="M114.134 26.0002H111.231V16.6534H114.134V26.0002ZM112.681 15.3784C111.753 15.3784 111 14.6096 111 13.6815C111 13.2357 111.177 12.8081 111.492 12.4929C111.808 12.1776 112.235 12.0005 112.681 12.0005C113.127 12.0005 113.554 12.1776 113.87 12.4929C114.185 12.8081 114.362 13.2357 114.362 13.6815C114.362 14.6096 113.609 15.3784 112.681 15.3784ZM124.997 26.0002H122.101V21.4502C122.101 20.3659 122.079 18.9752 120.592 18.9752C119.082 18.9752 118.851 20.1534 118.851 21.3721V26.0002H115.952V16.6534H118.736V17.9284H118.776C119.164 17.194 120.11 16.419 121.523 16.419C124.46 16.419 125 18.3534 125 20.8659V26.0002H124.997Z" fill="white"/>
<rect x="147" width="40" height="40" rx="20" fill="#EA4435"/>
<g clip-path="url(#clip0_4896_5528)">
<path d="M174 20.5107C174 24.5701 171.22 27.4591 167.115 27.4591C163.179 27.4591 160 24.2804 160 20.3443C160 16.4082 163.179 13.2296 167.115 13.2296C169.031 13.2296 170.643 13.9324 171.886 15.0914L169.949 16.9533C167.416 14.5091 162.705 16.3451 162.705 20.3443C162.705 22.8259 164.688 24.8369 167.115 24.8369C169.932 24.8369 170.988 22.8173 171.154 21.7701H167.115V19.323H173.888C173.954 19.6873 174 20.0373 174 20.5107Z" fill="white"/>
</g>
<defs>
<clipPath id="clip0_4896_5528">
<rect width="14" height="14.6885" fill="white" transform="translate(160 13)"/>
</clipPath>
</defs>
</svg>
